<svg xmlns="http://www.w3.org/2000/svg" xmlns:xlink="http://www.w3.org/1999/xlink" preserveAspectRatio="xMidYMid" width="18" height="18" viewBox="0 0 18 18">
  <path d="M8.997,-0.001 C13.968,-0.001 18.000,4.029 18.000,9.000 C18.000,13.971 13.968,18.001 8.997,18.001 C4.025,18.001 -0.006,13.971 -0.006,9.000 C-0.006,4.029 4.025,-0.001 8.997,-0.001 ZM4.495,10.500 L7.497,10.500 L7.497,13.501 C7.497,14.329 8.168,15.001 8.997,15.001 C9.825,15.001 10.497,14.329 10.497,13.501 L10.497,10.500 L13.499,10.500 C14.326,10.500 14.999,9.829 14.999,9.000 C14.999,8.172 14.326,7.500 13.499,7.500 L10.497,7.500 L10.497,4.500 C10.497,3.671 9.825,3.000 8.997,3.000 C8.168,3.000 7.497,3.671 7.497,4.500 L7.497,7.500 L4.495,7.500 C3.667,7.500 2.995,8.172 2.995,9.000 C2.995,9.829 3.667,10.500 4.495,10.500 Z" class="cls-1"/>
</svg>
