<svg xmlns="http://www.w3.org/2000/svg" xmlns:xlink="http://www.w3.org/1999/xlink" preserveAspectRatio="xMidYMid" width="14" height="14" viewBox="0 0 14 14">
  <path d="M11.367,14.003 L9.617,14.003 L9.617,12.253 L11.367,12.253 C11.850,12.253 12.241,11.861 12.241,11.378 L12.241,3.503 L1.743,3.503 L1.743,11.378 C1.743,11.861 2.135,12.253 2.618,12.253 L4.368,12.253 L4.368,14.003 L2.618,14.003 C1.168,14.003 -0.006,12.827 -0.006,11.378 L-0.006,2.628 C-0.006,1.178 1.168,0.002 2.618,0.002 L11.367,0.002 C12.816,0.002 13.991,1.178 13.991,2.628 L13.991,11.378 C13.991,12.827 12.816,14.003 11.367,14.003 ZM2.618,0.878 C2.135,0.878 1.743,1.269 1.743,1.752 C1.743,2.236 2.135,2.628 2.618,2.628 C3.102,2.628 3.493,2.236 3.493,1.752 C3.493,1.269 3.102,0.878 2.618,0.878 ZM6.374,7.258 C6.545,7.087 6.768,7.002 6.992,7.002 C7.216,7.002 7.440,7.087 7.611,7.258 L9.360,9.008 C9.610,9.258 9.685,9.634 9.550,9.962 C9.415,10.289 9.096,10.503 8.742,10.503 L7.867,10.503 L7.867,13.128 C7.867,13.611 7.475,14.003 6.992,14.003 C6.509,14.003 6.117,13.611 6.117,13.128 L6.117,10.503 L5.243,10.503 C4.889,10.503 4.569,10.289 4.435,9.962 C4.300,9.635 4.374,9.258 4.624,9.008 L6.374,7.258 Z" class="cls-1"/>
</svg>
