<svg xmlns="http://www.w3.org/2000/svg" xmlns:xlink="http://www.w3.org/1999/xlink" preserveAspectRatio="xMidYMid" width="20" height="18" viewBox="0 0 20 18">
  <path fill="#fff" d="M18.744,17.991 L1.256,17.991 C0.566,17.991 0.007,17.415 0.007,16.706 L0.007,3.855 C0.007,3.145 0.566,2.570 1.256,2.570 L3.754,2.570 C4.444,2.570 5.003,1.995 5.003,1.285 C5.003,0.575 5.563,0.000 6.252,0.000 L13.748,0.000 C14.438,0.000 14.997,0.575 14.997,1.285 C14.997,1.995 15.556,2.570 16.246,2.570 L18.744,2.570 C19.434,2.570 19.994,3.145 19.994,3.855 L19.994,16.706 C19.994,17.415 19.434,17.991 18.744,17.991 ZM10.000,2.570 C6.551,2.570 3.754,5.447 3.754,8.995 C3.754,12.544 6.551,15.421 10.000,15.421 C13.450,15.421 16.246,12.544 16.246,8.995 C16.246,5.447 13.450,2.570 10.000,2.570 ZM10.000,12.850 C7.930,12.850 6.252,11.124 6.252,8.995 C6.252,6.866 7.930,5.140 10.000,5.140 C12.070,5.140 13.748,6.866 13.748,8.995 C13.748,11.124 12.070,12.850 10.000,12.850 Z" class="cls-1"/>
</svg>
