<svg xmlns="http://www.w3.org/2000/svg" xmlns:xlink="http://www.w3.org/1999/xlink" preserveAspectRatio="xMidYMid" width="14" height="14" viewBox="0 0 14 14">
  <path d="M6.997,13.998 C3.130,13.998 -0.004,10.863 -0.004,6.995 C-0.004,3.127 3.130,-0.008 6.997,-0.008 C10.863,-0.008 13.998,3.127 13.998,6.995 C13.998,10.863 10.863,13.998 6.997,13.998 ZM6.997,1.743 C4.097,1.743 1.746,4.094 1.746,6.995 C1.746,9.896 4.097,12.248 6.997,12.248 C9.897,12.248 12.247,9.896 12.247,6.995 C12.247,4.094 9.897,1.743 6.997,1.743 ZM9.622,7.871 L6.997,7.871 C6.514,7.871 6.122,7.479 6.122,6.995 L6.122,4.369 C6.122,3.885 6.514,3.493 6.997,3.493 C7.480,3.493 7.872,3.885 7.872,4.369 L7.872,6.120 L9.622,6.120 C10.105,6.120 10.497,6.512 10.497,6.995 C10.497,7.479 10.105,7.871 9.622,7.871 Z" class="cls-1"/>
</svg>
