<?xml version="1.0" encoding="iso-8859-1"?>
<svg version="1.1" id="Layer_1" xmlns="http://www.w3.org/2000/svg" xmlns:xlink="http://www.w3.org/1999/xlink" x="0px" y="0px"
	 viewBox="0 0 3.579 3.125" style="enable-background:new 0 0 3.579 3.125;" xml:space="preserve">
<path d="M2.762,1.792c0-0.043,0.037-0.081,0.082-0.081c0.047,0,0.084,0.038,0.084,0.081v0.511
	c0,0.045-0.037,0.083-0.084,0.083H2.842h-0.82c-0.045,0-0.083-0.038-0.083-0.083V2.301V1.792c0-0.043,0.038-0.081,0.083-0.081
	c0.047,0,0.082,0.038,0.082,0.081v0.43h0.658V1.792L2.762,1.792z M3.123,1.742L3.123,1.742c0-0.047,0.037-0.083,0.082-0.083
	c0.045,0,0.084,0.036,0.084,0.083v1.302c0,0.045-0.039,0.081-0.084,0.081H3.203H0.375c-0.047,0-0.084-0.036-0.084-0.081V3.04V1.742
	c0-0.047,0.037-0.083,0.084-0.083c0.045,0,0.082,0.036,0.082,0.083V2.96h2.666V1.742L3.123,1.742z M0.457,0.345L0.457,0.345
	c0,0.047-0.037,0.082-0.082,0.082c-0.047,0-0.084-0.035-0.084-0.082V0.081C0.291,0.038,0.328,0,0.375,0h0.002h2.828
	C3.25,0,3.289,0.038,3.289,0.081v0.004v0.26c0,0.047-0.039,0.082-0.084,0.082c-0.045,0-0.082-0.035-0.082-0.082V0.164H0.457V0.345
	L0.457,0.345z M0,0.55L0,0.55c0-0.075,0.061-0.137,0.137-0.137c0.078,0,0.139,0.061,0.139,0.137v0.844
	c0,0.078-0.06,0.139-0.139,0.139C0.061,1.532,0,1.472,0,1.393V0.55L0,0.55z M0.473,0.55L0.473,0.55c0-0.075,0.061-0.137,0.137-0.137
	c0.076,0,0.139,0.061,0.139,0.137v0.844c0,0.078-0.062,0.139-0.139,0.139c-0.076,0-0.137-0.061-0.137-0.139V0.55L0.473,0.55z
	 M0.945,0.55L0.945,0.55c0-0.075,0.061-0.137,0.137-0.137c0.075,0,0.137,0.061,0.137,0.137v0.844c0,0.078-0.062,0.139-0.137,0.139
	c-0.076,0-0.137-0.061-0.137-0.139V0.55L0.945,0.55z M1.416,0.55L1.416,0.55c0-0.075,0.062-0.137,0.139-0.137
	c0.074,0,0.137,0.061,0.137,0.137v0.844c0,0.078-0.062,0.139-0.137,0.139c-0.076,0-0.139-0.061-0.139-0.139V0.55L1.416,0.55z
	 M1.888,0.55L1.888,0.55c0-0.075,0.062-0.137,0.138-0.137c0.076,0,0.139,0.061,0.139,0.137v0.844c0,0.078-0.062,0.139-0.139,0.139
	c-0.076,0-0.138-0.061-0.138-0.139V0.55L1.888,0.55z M2.359,0.55L2.359,0.55c0-0.075,0.062-0.137,0.139-0.137
	c0.076,0,0.138,0.061,0.138,0.137v0.844c0,0.078-0.062,0.139-0.138,0.139c-0.076,0-0.139-0.061-0.139-0.139V0.55L2.359,0.55z
	 M2.832,0.55L2.832,0.55c0-0.075,0.062-0.137,0.138-0.137c0.077,0,0.138,0.061,0.138,0.137v0.844c0,0.078-0.06,0.139-0.138,0.139
	c-0.076,0-0.138-0.061-0.138-0.139V0.55L2.832,0.55z M3.305,0.55L3.305,0.55c0-0.075,0.062-0.137,0.137-0.137
	c0.076,0,0.138,0.061,0.138,0.137v0.844c0,0.078-0.062,0.139-0.138,0.139c-0.075,0-0.137-0.061-0.137-0.139V0.55L3.305,0.55z
	 M1.486,1.792L1.486,1.792c0-0.043,0.037-0.081,0.084-0.081c0.045,0,0.082,0.038,0.082,0.081v0.947c0,0.047-0.037,0.082-0.082,0.082
	H1.568h-0.82c-0.047,0-0.084-0.035-0.084-0.082V2.737V1.792c0-0.043,0.037-0.081,0.084-0.081c0.045,0,0.081,0.038,0.081,0.081v0.864
	h0.657V1.792L1.486,1.792z"/>
</svg>
