<?xml version="1.0" encoding="utf-8"?>
<svg version="1.1" id="Layer_1" xmlns="http://www.w3.org/2000/svg" xmlns:xlink="http://www.w3.org/1999/xlink" x="0px" y="0px"
	 width="3.1298945px" height="3.6631px" viewBox="0 0 3.1298945 3.6631" enable-background="new 0 0 3.1298945 3.6631"
	 xml:space="preserve">
<path d="M0.7587944,2.0225c-0.0752,0-0.1377,0.0614998-0.1377,0.1376998
	c0,0.0752001,0.0625,0.1376846,0.1377,0.1376846c0.0752056,0,0.1377-0.0624845,0.1377-0.1376846
	C0.8964944,2.0839999,0.834,2.0225,0.7587944,2.0225L0.7587944,2.0225z M0.7587944,2.6036L0.7587944,2.6036
	c-0.0752,0-0.1377,0.0625-0.1377,0.1376998c0,0.0761001,0.0625,0.1375847,0.1377,0.1375847
	c0.0752056,0,0.1377-0.0614846,0.1377-0.1375847C0.8964944,2.6661,0.834,2.6036,0.7587944,2.6036L0.7587944,2.6036z
	 M0.7587944,1.4413999L0.7587944,1.4413999c-0.0752,0-0.1377,0.0616001-0.1377,0.1377001c0,0.0752,0.0625,0.1377,0.1377,0.1377
	c0.0752056,0,0.1377-0.0625,0.1377-0.1377C0.8964944,1.503,0.834,1.4413999,0.7587944,1.4413999L0.7587944,1.4413999z
	 M2.9940944,0.5713L2.9940944,0.5713H2.6151943V0.4952c0-0.045-0.0370998-0.0811-0.082-0.0811h-0.4424
	C2.0673945,0.3145,2.0174944,0.2286,1.9491944,0.1602C1.8495945,0.0606,1.7147944,0,1.5643945,0
	C1.415,0,1.2811944,0.0606,1.1825944,0.1602c-0.0692999,0.0684-0.1201,0.1543-0.1445,0.2539H0.5965945
	c-0.0449,0-0.083,0.0361-0.083,0.0811v0.0761h-0.375C0.0624945,0.5713,0,0.6328844,0,0.709v2.8164001
	C0,3.6015999,0.0624945,3.6631,0.1385945,3.6631h2.8555c0.0741999,0,0.1358001-0.0615001,0.1358001-0.1377001V0.709
	C3.1298945,0.6328844,3.0682943,0.5713,2.9940944,0.5713L2.9940944,0.5713z M1.2987944,0.2754L1.2987944,0.2754
	c0.0684-0.0683,0.1631-0.1103,0.2656001-0.1103c0.1035,0,0.1991999,0.042,0.2676055,0.1103
	c0.0370944,0.0381,0.0683944,0.085,0.0878944,0.1387h-0.709C1.2303945,0.3604,1.2596945,0.3135,1.2987944,0.2754L1.2987944,0.2754z
	 M0.6815944,0.5782L0.6815944,0.5782h1.7686v0.2616845h-1.7686V0.5782L0.6815944,0.5782z M2.8553944,3.3867998L2.8553944,3.3867998
	H0.2753945V0.8457h0.2382v0.0761845c0,0.0449155,0.0381,0.082,0.083,0.082h1.9365999c0.0449002,0,0.082-0.0370845,0.082-0.082
	V0.8457h0.2402V3.3867998L2.8553944,3.3867998z M2.3651943,1.4960999L2.3651943,1.4960999H1.1698945
	c-0.0448945,0-0.082,0.0371-0.082,0.0830001c0,0.045,0.0371056,0.0829999,0.082,0.0829999h1.1952999
	c0.0469,0,0.0830002-0.038,0.0830002-0.0829999C2.4481945,1.5331999,2.4120944,1.4960999,2.3651943,1.4960999L2.3651943,1.4960999z
	 M2.3651943,2.6582L2.3651943,2.6582H1.1698945c-0.0448945,0-0.082,0.0372-0.082,0.0830998
	c0,0.0458,0.0371056,0.0810001,0.082,0.0810001h1.1952999c0.0469,0,0.0830002-0.0352001,0.0830002-0.0810001
	C2.4481945,2.6954,2.4120944,2.6582,2.3651943,2.6582L2.3651943,2.6582z M2.3651943,2.0781999L2.3651943,2.0781999H1.1698945
	c-0.0448945,0-0.082,0.0361001-0.082,0.082c0,0.0459001,0.0371056,0.082,0.082,0.082h1.1952999
	c0.0469,0,0.0830002-0.0360999,0.0830002-0.082C2.4481945,2.1143,2.4120944,2.0781999,2.3651943,2.0781999L2.3651943,2.0781999z"/>
</svg>
