<?xml version="1.0" encoding="utf-8"?>
<svg version="1.1" id="Layer_1" xmlns="http://www.w3.org/2000/svg" xmlns:xlink="http://www.w3.org/1999/xlink" x="0px" y="0px"
	 width="15px" height="16px" viewBox="0 0 15 16" enable-background="new 0 0 15 16" xml:space="preserve">
<path d="M11,6c0-1.1046-0.8954-2-2-2H3C1.89543,4,1,4.8954,1,6v1h10V6z"/>
<path d="M12,8H0v7c0,0.5523005,0.44772,1,1,1h10.5858002
	c0.2651997,0,0.5195999-0.1054001,0.7070999-0.2929001l2.4141998-2.4141998C14.8945999,13.1054001,15,12.8509998,15,12.5858002V5
	L12,8z M9,13H3v-2h6V13z"/>
<path d="M11,0H5C3.8954301,0,3,0.8954,3,2v1h7.6197996C11.382,3,12,3.618,12,4.3801999V6l1-1V4V3
	V2.3893001V2l0,0C13,0.8954,12.1046,0,11,0z"/>
</svg>
