<?xml version="1.0" encoding="iso-8859-1"?>
<svg version="1.1" xmlns="http://www.w3.org/2000/svg" xmlns:xlink="http://www.w3.org/1999/xlink" x="0px"
	 y="0px" viewBox="0 0 32 32" style="enable-background:new 0 0 32 32;" xml:space="preserve">
<path d="M18.842,0.03l0.318,1.975l-6.001,0.968l-0.318-1.975L18.842,0.03z"/>
<path d="M27.18,27H4.82L7,13.885C7.046,8.978,11.065,5,16,5c4.935,0,8.954,3.973,9,8.875L27.18,27z M7.18,25h17.64L23,13.959
	C23,10.122,19.859,7,16,7c-3.859,0-7,3.127-7,6.97l-0.014,0.164L7.18,25z"/>
<path d="M11.991,22.131l-1.982-0.262L11,13.979C11,11.233,13.243,9,16,9v2c-1.654,0-3,1.336-3,2.979l-0.009,0.579L11.991,22.131z"/>
<path d="M16,32c-1.654,0-3-1.346-3-3h2c0,0.551,0.448,1,1,1c0.553,0,1-0.449,1-1h2C19,30.654,17.654,32,16,32z"/>
</svg>
