<svg xmlns="http://www.w3.org/2000/svg" xmlns:xlink="http://www.w3.org/1999/xlink" preserveAspectRatio="xMidYMid" width="20" height="20" viewBox="0 0 20 20">
  <path fill="#f63" d="M10.000,20.000 C4.477,20.000 -0.000,15.523 -0.000,10.000 C-0.000,4.477 4.477,0.000 10.000,0.000 C15.523,0.000 20.000,4.477 20.000,10.000 C20.000,15.523 15.523,20.000 10.000,20.000 ZM10.000,1.875 C5.513,1.875 1.875,5.513 1.875,10.000 C1.875,14.487 5.513,18.125 10.000,18.125 C14.487,18.125 18.125,14.487 18.125,10.000 C18.125,5.513 14.487,1.875 10.000,1.875 ZM10.000,15.000 C9.482,15.000 9.063,14.580 9.063,14.063 C9.063,13.545 9.482,13.125 10.000,13.125 C10.518,13.125 10.937,13.545 10.937,14.063 C10.937,14.580 10.518,15.000 10.000,15.000 ZM10.000,11.875 C9.482,11.875 9.063,11.455 9.063,10.938 L9.063,5.937 C9.063,5.420 9.482,5.000 10.000,5.000 C10.518,5.000 10.937,5.420 10.937,5.937 L10.937,10.938 C10.937,11.455 10.518,11.875 10.000,11.875 Z" class="cls-1"/>
</svg>
