<?xml version="1.0" encoding="utf-8"?>
<svg version="1.1" xmlns="http://www.w3.org/2000/svg" xmlns:xlink="http://www.w3.org/1999/xlink" x="0px" y="0px"
	 width="32px" height="32px" viewBox="0 0 32 32" enable-background="new 0 0 32 32" xml:space="preserve">
<path d="M16,32C9.3827858,32,4,26.6172009,4,20v-6h24v6C28,26.6172009,22.6161861,32,16,32z M6,16v4c0,5.5137005,4.4857855,10,10,10
	c5.5136852,0,10-4.4862995,10-10v-4H6z"/>
<path d="M16,27c-1.6459999,0-2.9858141-1.3320007-3-2.9745998V22c0-1.6543007,1.3461857-3,3-3c1.6542854,0,3,1.3456993,3,3
	v2.0254002C18.9862862,25.6679993,17.6444855,27,16,27z M16,21c-0.5508146,0-1,0.4491997-1,1v2c0,0.5508003,0.4491854,1,1,1
	c0.5507851,0,1-0.4491997,1-1v-2C17,21.4491997,16.5507851,21,16,21z"/>
<path d="M24,12h-2V7.6859999C22,4.5513,19.3085861,2,16,2c-3.3081141,0-6,2.5513-6,5.6859999V12H8V7.6859999
	C8,3.4468,11.5878859,0,16,0c4.4120865,0,8,3.4468,8,7.6859999V12z"/>
</svg>
