<svg xmlns="http://www.w3.org/2000/svg" xmlns:xlink="http://www.w3.org/1999/xlink" preserveAspectRatio="xMidYMid" width="18" height="18" viewBox="0 0 18 18">
  <path d="M16.716,5.622 L16.716,14.618 C16.716,16.481 14.990,17.991 12.860,17.991 L5.145,17.991 C3.015,17.991 1.288,16.481 1.288,14.618 L1.288,5.622 C0.578,5.622 0.003,5.119 0.003,4.498 C0.003,3.877 0.578,3.373 1.288,3.373 L5.145,3.373 L5.145,3.373 C5.145,1.510 6.872,-0.000 9.002,-0.000 C11.133,-0.000 12.860,1.510 12.860,3.373 L12.860,3.373 L16.716,3.373 C17.427,3.373 18.002,3.877 18.002,4.498 C18.002,5.119 17.427,5.622 16.716,5.622 ZM9.002,2.249 C8.293,2.249 7.717,2.752 7.717,3.373 L10.288,3.373 C10.288,2.752 9.713,2.249 9.002,2.249 ZM3.859,5.622 L3.859,14.618 C3.859,15.239 4.435,15.742 5.145,15.742 L12.860,15.742 C13.569,15.742 14.145,15.239 14.145,14.618 L14.145,5.622 L3.859,5.622 ZM10.931,13.493 C10.576,13.493 10.288,13.242 10.288,12.931 L10.288,8.433 C10.288,8.123 10.576,7.871 10.931,7.871 C11.286,7.871 11.574,8.123 11.574,8.433 L11.574,12.931 C11.574,13.242 11.286,13.493 10.931,13.493 ZM7.074,13.493 C6.719,13.493 6.431,13.242 6.431,12.931 L6.431,8.433 C6.431,8.123 6.719,7.871 7.074,7.871 C7.429,7.871 7.717,8.123 7.717,8.433 L7.717,12.931 C7.717,13.242 7.429,13.493 7.074,13.493 Z" class="cls-1"/>
</svg>
