<?xml version="1.0" encoding="utf-8"?>
<svg version="1.1" xmlns="http://www.w3.org/2000/svg" xmlns:xlink="http://www.w3.org/1999/xlink" x="0px" y="0px"
	 width="16px" height="16px" viewBox="0 0 16 16" enable-background="new 0 0 16 16" xml:space="preserve">
<path d="M9,7V5c0-0.5521998-0.447813-1-1-1l0,0C7.4477868,4,7,4.4478002,7,5v2v2h2h2
	c0.552187,0,1-0.4477997,1-1l0,0c0-0.5521998-0.447813-1-1-1H9z"/>
<path d="M8,16c-4.4111133,0-8-3.5888996-8-8s3.5888867-8,8-8c4.4110861,0,8,3.5889001,8,8
	S12.4110861,16,8,16z M8,2C4.6913867,2,2,4.6914001,2,8s2.6913867,6,6,6c3.3085861,0,6-2.6913996,6-6S11.3085861,2,8,2z"/>
</svg>
