<svg xmlns="http://www.w3.org/2000/svg" xmlns:xlink="http://www.w3.org/1999/xlink" preserveAspectRatio="xMidYMid" width="14" height="14" viewBox="0 0 14 14">
  <path d="M7.002,14.004 C3.137,14.004 0.003,12.660 0.003,11.001 C0.003,10.389 0.436,9.820 1.170,9.345 L1.170,6.997 C1.170,4.930 2.632,3.156 4.716,2.393 C4.685,2.263 4.669,2.129 4.669,1.992 C4.669,0.887 5.713,-0.010 7.002,-0.010 C8.290,-0.010 9.335,0.887 9.335,1.992 C9.335,2.129 9.318,2.263 9.288,2.393 C11.372,3.156 12.834,4.930 12.834,6.997 L12.834,9.345 C13.568,9.820 14.000,10.389 14.000,11.001 C14.000,12.660 10.867,14.004 7.002,14.004 ZM7.002,8.999 C4.425,8.999 2.336,9.896 2.336,11.001 C2.336,12.107 4.425,13.003 7.002,13.003 C9.579,13.003 11.668,12.107 11.668,11.001 C11.668,9.896 9.579,8.999 7.002,8.999 ZM7.002,12.002 C5.863,12.002 4.917,11.301 4.713,10.374 C5.328,10.144 6.122,10.000 7.002,10.000 C7.881,10.000 8.676,10.144 9.291,10.374 C9.086,11.301 8.141,12.002 7.002,12.002 Z" class="cls-1"/>
</svg>
