<svg xmlns="http://www.w3.org/2000/svg" xmlns:xlink="http://www.w3.org/1999/xlink" preserveAspectRatio="xMidYMid" width="18" height="18" viewBox="0 0 18 18">
  <path d="M14.625,17.997 L3.371,17.997 C1.506,17.997 -0.006,16.486 -0.006,14.622 L-0.006,3.370 C-0.006,1.903 0.937,0.666 2.245,0.201 L2.245,1.682 C2.245,2.614 3.001,3.370 3.933,3.370 C4.866,3.370 5.621,2.614 5.621,1.682 L5.621,-0.006 L12.374,-0.006 L12.374,1.682 C12.374,2.614 13.130,3.370 14.062,3.370 C14.995,3.370 15.750,2.614 15.750,1.682 L15.750,0.201 C17.058,0.666 18.001,1.903 18.001,3.370 L18.001,14.622 C18.001,16.486 16.490,17.997 14.625,17.997 ZM15.750,5.620 L2.245,5.620 L2.245,14.622 C2.245,15.243 2.749,15.747 3.371,15.747 L14.625,15.747 C15.246,15.747 15.750,15.243 15.750,14.622 L15.750,5.620 ZM11.248,11.246 L13.499,11.246 L13.499,13.497 L11.248,13.497 L11.248,11.246 ZM11.248,7.871 L13.499,7.871 L13.499,10.121 L11.248,10.121 L11.248,7.871 ZM7.872,11.246 L10.123,11.246 L10.123,13.497 L7.872,13.497 L7.872,11.246 ZM7.872,7.871 L10.123,7.871 L10.123,10.121 L7.872,10.121 L7.872,7.871 ZM4.496,11.246 L6.747,11.246 L6.747,13.497 L4.496,13.497 L4.496,11.246 ZM4.496,7.871 L6.747,7.871 L6.747,10.121 L4.496,10.121 L4.496,7.871 ZM14.062,2.245 C13.752,2.245 13.499,1.993 13.499,1.682 L13.499,-0.006 L14.625,-0.006 L14.625,1.682 C14.625,1.993 14.373,2.245 14.062,2.245 ZM3.933,2.245 C3.622,2.245 3.371,1.993 3.371,1.682 L3.371,-0.006 L4.496,-0.006 L4.496,1.682 C4.496,1.993 4.244,2.245 3.933,2.245 Z" class="cls-1"/>
</svg>
