<svg xmlns="http://www.w3.org/2000/svg" xmlns:xlink="http://www.w3.org/1999/xlink" preserveAspectRatio="xMidYMid" width="14" height="14" viewBox="0 0 14 14">
  <path d="M13.488,2.997 L12.185,4.300 L9.673,1.864 L11.014,0.522 C11.697,-0.161 12.805,-0.161 13.488,0.522 C14.172,1.206 14.172,2.313 13.488,2.997 ZM2.628,11.385 L3.563,7.961 L8.917,2.619 L11.422,5.063 L6.038,10.435 L2.628,11.385 ZM2.628,1.760 C2.145,1.760 1.753,2.151 1.753,2.635 L1.753,11.385 C1.753,11.868 2.145,12.260 2.628,12.260 L11.376,12.260 C11.860,12.260 12.251,11.868 12.251,11.385 L12.251,6.709 L14.001,4.959 L14.001,11.385 C14.001,12.835 12.826,14.010 11.376,14.010 L2.628,14.010 C1.179,14.010 0.004,12.835 0.004,11.385 L0.004,2.635 C0.004,1.185 1.179,0.010 2.628,0.010 L9.051,0.010 L7.298,1.760 L2.628,1.760 Z" class="cls-1"/>
</svg>
