<?xml version="1.0" encoding="iso-8859-1"?>
<svg version="1.1" xmlns="http://www.w3.org/2000/svg" xmlns:xlink="http://www.w3.org/1999/xlink" x="0px" y="0px"
	 viewBox="0 0 3.492 3.473" style="enable-background:new 0 0 3.492 3.473;" xml:space="preserve">
<path d="M3.354,0H0.137C0.062,0,0,0.062,0,0.138v2.927c0,0.074,0.062,0.137,0.137,0.137h0.262v0.133
	c0,0.078,0.062,0.139,0.138,0.139c0.077,0,0.137-0.06,0.137-0.139V3.201h2.146v0.133c0,0.078,0.061,0.139,0.137,0.139
	c0.076,0,0.139-0.06,0.139-0.139V3.201h0.26c0.076,0,0.139-0.062,0.139-0.137V0.138C3.492,0.062,3.43,0,3.354,0z M3.298,2.999H0.194
	V0.203h3.104V2.999z"/>
<path d="M0.882,2.227V0.919c0.038-0.013,0.072-0.034,0.1-0.061c0.047-0.047,0.077-0.111,0.077-0.183
	c0-0.07-0.03-0.135-0.077-0.182c-0.047-0.046-0.11-0.075-0.181-0.075c-0.07,0-0.135,0.029-0.182,0.075
	C0.572,0.54,0.543,0.604,0.543,0.675c0,0.071,0.029,0.136,0.076,0.183c0.026,0.027,0.06,0.049,0.099,0.061v1.308
	C0.684,2.238,0.65,2.258,0.624,2.285L0.619,2.289C0.572,2.336,0.543,2.398,0.543,2.471c0,0.072,0.029,0.136,0.076,0.182
	s0.111,0.074,0.182,0.074c0.068,0,0.129-0.025,0.175-0.068l0.006-0.006c0.047-0.046,0.077-0.109,0.077-0.182
	c0-0.072-0.03-0.135-0.077-0.182C0.954,2.262,0.92,2.24,0.882,2.227z M0.709,0.767V0.765C0.687,0.742,0.674,0.71,0.674,0.675
	c0-0.034,0.012-0.066,0.035-0.09C0.734,0.56,0.766,0.548,0.801,0.548c0.035,0,0.067,0.012,0.087,0.036H0.89
	c0.023,0.024,0.038,0.056,0.038,0.09c0,0.035-0.015,0.067-0.038,0.09L0.888,0.767c-0.02,0.019-0.052,0.035-0.087,0.035
	C0.766,0.802,0.734,0.786,0.709,0.767z M0.888,2.561L0.886,2.565c-0.02,0.02-0.052,0.032-0.085,0.032
	c-0.035,0-0.067-0.013-0.091-0.036c-0.023-0.023-0.035-0.055-0.035-0.09c0-0.035,0.012-0.067,0.035-0.089l0.005-0.005
	c0.022-0.02,0.051-0.032,0.083-0.032h0.005c0.035,0,0.065,0.013,0.085,0.038c0.024,0.021,0.039,0.054,0.039,0.089
	C0.927,2.506,0.912,2.538,0.888,2.561z"/>
<path d="M2.502,1.322V1.32H2.501c-0.07-0.07-0.17-0.113-0.278-0.113c-0.107,0-0.207,0.043-0.277,0.113
	C1.873,1.393,1.83,1.492,1.83,1.6c0,0.109,0.043,0.208,0.115,0.279c0.07,0.071,0.17,0.116,0.277,0.116
	c0.107,0,0.203-0.044,0.274-0.112l0.005-0.004C2.573,1.808,2.618,1.709,2.618,1.6C2.618,1.492,2.573,1.395,2.502,1.322z
	 M2.419,1.796L2.414,1.799C2.365,1.847,2.297,1.875,2.223,1.875c-0.075,0-0.144-0.03-0.193-0.08C1.979,1.747,1.948,1.676,1.948,1.6
	c0-0.075,0.031-0.144,0.082-0.195c0.048-0.047,0.117-0.08,0.193-0.08c0.076,0,0.148,0.033,0.196,0.08
	c0.049,0.05,0.08,0.12,0.08,0.195C2.498,1.676,2.468,1.747,2.419,1.796z"/>
<path d="M2.703,1.122C2.58,1,2.41,0.922,2.223,0.922c-0.184,0-0.351,0.076-0.474,0.195L1.744,1.122
	C1.623,1.244,1.547,1.414,1.547,1.6c0,0.188,0.076,0.357,0.197,0.48c0.123,0.122,0.292,0.197,0.479,0.197
	c0.188,0,0.357-0.075,0.48-0.197C2.825,1.957,2.9,1.787,2.9,1.6C2.9,1.414,2.825,1.244,2.703,1.122z M2.614,1.991
	C2.515,2.09,2.375,2.152,2.223,2.152S1.932,2.09,1.833,1.991c-0.1-0.1-0.162-0.238-0.162-0.391c0-0.152,0.062-0.289,0.162-0.389
	l0.003-0.004c0.099-0.098,0.236-0.158,0.386-0.158c0.153,0,0.292,0.062,0.391,0.162C2.715,1.31,2.775,1.448,2.775,1.6
	C2.775,1.753,2.715,1.891,2.614,1.991z"/>
</svg>
