<?xml version="1.0" encoding="utf-8"?>
<svg version="1.1" id="Layer_1" xmlns="http://www.w3.org/2000/svg" xmlns:xlink="http://www.w3.org/1999/xlink" x="0px" y="0px"
	 width="3.5800941px" height="3.5801053px" viewBox="0 0 3.5800941 3.5801053" enable-background="new 0 0 3.5800941 3.5801053"
	 xml:space="preserve">
<path d="M1.7900941,0.6367054c0.2783,0,0.5174999,0.2061,0.5595,0.4805
	c0.043-0.0145999,0.0878999-0.0215,0.1329-0.0215c0.125,0,0.2381999,0.0498,0.3192999,0.1309
	c0.0810001,0.0829999,0.1317999,0.1953,0.1317999,0.3192999c0,0.1192-0.0458999,0.2276001-0.1210999,0.3076L2.9189999,1.961
	C2.966794,2.0098054,3.0020001,2.0616055,3.0273941,2.1192055c0.0244,0.0595,0.0371001,0.1229999,0.0371001,0.1913998v0.1318002
	c0,0.0360999-0.0117002,0.0723-0.0322001,0.1025946c-0.0225,0.0302052-0.0537999,0.0527053-0.0967,0.0576053
	c-0.0039001,0-0.0059001,0-0.0098,0H2.822294v0.0381c0,0.0448999-0.0370998,0.0810001-0.082,0.0810001H2.7382941h-0.9482h-0.9463
	h-0.002c-0.0467941,0-0.084-0.0361001-0.084-0.0810001v-0.0381H0.6542941c-0.0019,0-0.0058,0-0.0088,0
	c-0.042-0.0049-0.0752-0.0274-0.0976-0.0576053c-0.0205-0.0302947-0.0303-0.0664947-0.0303-0.1025946V2.3106053
	c0-0.0683999,0.0117-0.1318998,0.0371-0.1913998c0.044-0.1075001,0.1319-0.1836001,0.2149-0.2657001
	c-0.0762-0.0799999-0.1231-0.1884-0.1231-0.3076c0-0.124,0.0508-0.2363,0.1328-0.3192999
	c0.0821-0.0811,0.1934-0.1309,0.3183999-0.1309c0.0469,0,0.0918001,0.0069001,0.1328001,0.0215
	C1.2734941,0.8428054,1.5117941,0.6367054,1.7900941,0.6367054L1.7900941,0.6367054z M3.302794,1.8721054L3.302794,1.8721054
	h-0.1817c-0.0467999,0-0.0839999-0.0371053-0.0839999-0.0829999c0-0.0449001,0.0372-0.082,0.0839999-0.082h0.1817
	c-0.0195999-0.3868001-0.1856-0.7325-0.4413998-0.9883l0,0c-0.2559001-0.2559-0.6026001-0.4199-0.9883001-0.4414V0.461
	c0,0.0449055-0.038094,0.082-0.0829999,0.082c-0.0459001,0-0.0830001-0.0370945-0.0830001-0.082V0.2774054
	c-0.3858,0.0215-0.7325,0.1855-0.9863999,0.4414h-0.0019c-0.2559,0.2558-0.4199,0.6014999-0.4414,0.9883H0.461
	c0.0448941,0,0.082,0.0371,0.082,0.082c0,0.0458946-0.0371059,0.0829999-0.082,0.0829999H0.2773941
	c0.0215,0.3857,0.1855,0.7323999,0.4414,0.9883001l0.0019,0.0009999c0.2539,0.2548001,0.6005999,0.4198999,0.9863999,0.4403999
	V3.1192055c0-0.0459001,0.0371-0.0821002,0.0830001-0.0821002c0.0449059,0,0.0829999,0.0362,0.0829999,0.0821002v0.1825998
	c0.3857-0.0204999,0.7323999-0.1855998,0.9883001-0.4403999V2.8604054C3.1171939,2.6045053,3.2831941,2.2578053,3.302794,1.8721054
	L3.302794,1.8721054z M1.7900941,0L1.7900941,0C2.284194,0,2.7314939,0.2012054,3.0546939,0.5235054h0.0010002
	c0.3241999,0.3252,0.5244,0.7723999,0.5244,1.2656c0,0.4940999-0.2002001,0.9414001-0.5244,1.2656H3.0546939l0,0
	C2.730494,3.3799055,2.2831941,3.5801053,1.7900941,3.5801053c-0.4932001,0-0.9405-0.2001998-1.2647001-0.5253999h-0.001V3.0537055
	C0.2001941,2.7305055,0,2.2832053,0,1.7891054c0-0.4932001,0.2001941-0.9404,0.5243941-1.2656h0.001l0,0
	C0.8495941,0.2012054,1.2968941,0,1.7900941,0L1.7900941,0z M1.7900941,2.5576053L1.7900941,2.5576053h0.2549059
	c0-0.1239998,0-0.2508998,0-0.375c0-0.0272999,0.0223939-0.0506999,0.049794-0.0506999
	c0.0273001,0,0.0497999,0.0234001,0.0497999,0.0506999v0.2159002h0.2129002
	c0.0039001-0.003,0.0039001-0.0108001,0.0039001-0.0176001V2.2061055c0-0.2363001-0.1563001-0.3467001-0.3096001-0.4990001
	c-0.0781,0.039-0.1669999,0.0625-0.2616999,0.0625c-0.0938001,0-0.1836001-0.0235-0.2617-0.0625
	c-0.1533941,0.1523-0.3096,0.2627-0.3096,0.4990001v0.1747999c0,0.0067999,0.0019,0.0146,0.0038999,0.0176001h0.2129V2.1826053
	c0-0.0272999,0.0224059-0.0506999,0.0498-0.0506999c0.0273,0,0.0488,0.0234001,0.0488,0.0506999
	c0,0.1241002,0.0009999,0.2510002,0.0009999,0.375H1.7900941L1.7900941,2.5576053z M1.7900941,1.6035054L1.7900941,1.6035054
	c0.2196999,0,0.4013-0.1756999,0.4013-0.4002999c0-0.2217001-0.1796-0.4014-0.4013-0.4014
	c-0.2198,0-0.4014001,0.1797-0.4014001,0.4014C1.388694,1.4278054,1.5722941,1.6035054,1.7900941,1.6035054L1.7900941,1.6035054z
	 M0.9247941,2.5576053L0.9247941,2.5576053H1.166C1.1327941,2.5469053,1.1083941,2.5254054,1.0888941,2.5
	c-0.0234001-0.0350947-0.0361-0.0780947-0.0361-0.1190946V2.2061055c0-0.0742002,0.0117-0.1445,0.0351-0.2090001
	c-0.0663999-0.002-0.1288941-0.0186-0.1855-0.0448999c-0.0683941,0.0683-0.1582,0.1396-0.1973,0.2303998v0.0010002
	c-0.0156,0.0390999-0.0234,0.0801001-0.0234,0.1269999v0.1269002h0.1435V2.293c0-0.0272946,0.0225-0.0507946,0.0498059-0.0507946
	c0.0273941,0,0.0497941,0.0235,0.0497941,0.0507946V2.5576053L0.9247941,2.5576053z M1.2314941,1.294L1.2314941,1.294
	c-0.0146999-0.0077946-0.0322-0.0146946-0.0479-0.0204946c-0.0263-0.0088-0.0547-0.0118001-0.0859001-0.0118001
	c-0.0790999,0-0.1513999,0.0312946-0.2021999,0.0821c-0.0517,0.0526999-0.083,0.125-0.083,0.2020999
	c0,0.0790946,0.0313,0.1494,0.083,0.2022001c0.0508,0.0527,0.1231,0.0829999,0.2021999,0.0829999
	c0.0312001,0,0.0615001-0.0038999,0.0918001-0.0127C1.25,1.7422054,1.326194,1.6758054,1.3945941,1.6075054
	C1.3085941,1.5215054,1.252,1.4121054,1.2314941,1.294L1.2314941,1.294z M2.6552939,2.5576053L2.6552939,2.5576053V2.293
	c0-0.0272946,0.0234001-0.0507946,0.0508001-0.0507946c0.0264001,0,0.0488,0.0235,0.0488,0.0507946v0.1445055h0.1436V2.3106053
	c0-0.0468998-0.0077999-0.0878999-0.023494-0.1269999V2.1826053C2.8593941,2.1465054,2.836,2.1104054,2.802794,2.0782053
	l-0.125-0.1259999c-0.0546999,0.0263-0.1192,0.0429-0.1855998,0.0448999c0.0235,0.0645001,0.0351999,0.1348,0.0351999,0.2090001
	v0.1747999c0,0.0409999-0.0127001,0.0839999-0.0371001,0.1190946c-0.0186,0.0254054-0.043,0.0469053-0.0742941,0.0576053H2.6552939
	L2.6552939,2.5576053z M2.3495941,1.294L2.3495941,1.294C2.327194,1.42,2.2773941,1.5176054,2.186594,1.6075054
	c0.0673001,0.0683,0.1435001,0.1346999,0.2060001,0.2108999c0.0067999,0.0019,0.0254059,0.0078,0.0332,0.0078
	c0.0165999,0.0049,0.0370998,0.0049,0.0567,0.0049c0.0790999,0,0.1513-0.0302999,0.2021-0.0829999
	C2.7363942,1.6953053,2.769594,1.625,2.769594,1.5459054c0-0.0770999-0.0331998-0.1494-0.0849998-0.2020999
	c-0.0508001-0.0508054-0.1230001-0.0821-0.2021-0.0821c-0.0293,0-0.0596001,0.003-0.086,0.0118001
	C2.3808939,1.2793055,2.365294,1.2862054,2.3495941,1.294L2.3495941,1.294z"/>
</svg>
