<?xml version="1.0" encoding="iso-8859-1"?>
<svg version="1.1" id="&#x56FE;&#x5C42;_1" xmlns="http://www.w3.org/2000/svg" xmlns:xlink="http://www.w3.org/1999/xlink" x="0px"
	 y="0px" viewBox="0 0 32 32" style="enable-background:new 0 0 32 32;" xml:space="preserve">
<path d="M4,7L4,7C3.198,7,2.444,6.688,1.878,6.121L0.464,4.707l4.242-4.242L6.12,1.879C6.688,2.445,7,3.199,7,4.002
	c0,0.801-0.313,1.555-0.881,2.121C5.555,6.688,4.801,7,4,7z M3.292,4.707C3.481,4.896,3.732,5,4,5l0,0
	c0.267,0,0.518-0.104,0.706-0.292C4.896,4.518,5,4.268,5,4.002c0-0.268-0.104-0.52-0.293-0.708V3.293L3.292,4.707z"/>
<path d="M6.107,4.695l6.328,6.103l-1.388,1.44L4.719,6.135L6.107,4.695z"/>
<path d="M21.984,20.346l5.463,5.465l-1.413,1.414L20.57,21.76L21.984,20.346z"/>
<path d="M26.742,31.514c-1.277,0-2.555-0.484-3.526-1.457l-6.084-6.084l1.414-1.414l6.084,6.084
	c1.167,1.166,3.065,1.162,4.236-0.006c1.169-1.17,1.167-3.076-0.007-4.25l-6.071-6.07l1.414-1.414l6.071,6.07
	c1.953,1.955,1.955,5.129,0.006,7.078C29.305,31.025,28.021,31.514,26.742,31.514z"/>
<path d="M23.516,15.486L23.516,15.486c-1.869-0.001-3.627-0.729-4.949-2.052c-1.323-1.321-2.051-3.079-2.051-4.948
	c0-1.871,0.728-3.629,2.051-4.951l1.828-1.828l1.414,1.414L19.98,4.949c-0.945,0.945-1.467,2.201-1.465,3.536
	c0,1.335,0.521,2.591,1.465,3.535c0.943,0.944,2.199,1.466,3.535,1.466l0,0c1.334,0,2.59-0.521,3.534-1.466l1.828-1.828l1.414,1.414
	l-1.828,1.828C27.143,14.758,25.385,15.486,23.516,15.486z"/>
<path d="M30.293,11.606l-2.121-2.121l-0.707,0.707c-0.755,0.756-1.759,1.172-2.828,1.172l0,0c-1.068-0.001-2.074-0.417-2.828-1.172
	c-0.756-0.755-1.172-1.759-1.172-2.828c0-1.067,0.416-2.073,1.172-2.829l0.707-0.707l-2.121-2.121l1.414-1.414l3.535,3.535
	l-2.121,2.121c-0.377,0.379-0.586,0.881-0.586,1.415c0,0.534,0.209,1.036,0.586,1.413c0.377,0.379,0.879,0.587,1.414,0.587l0,0
	c0.534,0,1.036-0.208,1.414-0.586l2.122-2.121l3.535,3.535L30.293,11.606z"/>
<path d="M4.031,25.969h2v2h-2V25.969z"/>
<path d="M14.568,12.882l3.967,3.923l-1.406,1.422l-3.967-3.922L14.568,12.882z"/>
<path d="M5,32c-1.335,0-2.591-0.52-3.536-1.465C0.521,29.592,0,28.336,0,27s0.521-2.592,1.465-3.535l0.119-0.101l10.346-7.516
	l1.176,1.617L2.828,24.932C2.293,25.49,2,26.223,2,27c0,0.801,0.312,1.555,0.879,2.121c1.116,1.117,3.052,1.137,4.189,0.051
	l7.468-10.275l1.618,1.176L8.536,30.535C7.592,31.479,6.336,32,5,32z"/>
</svg>
