<?xml version="1.0" encoding="utf-8"?>
<svg version="1.1" id="Layer_1" xmlns="http://www.w3.org/2000/svg" xmlns:xlink="http://www.w3.org/1999/xlink" x="0px" y="0px"
	 width="3.5800931px" height="3.5800998px" viewBox="0 0 3.5800931 3.5800998" enable-background="new 0 0 3.5800931 3.5800998"
	 xml:space="preserve">
<path d="M1.791,0.9385c0.4648932,0,0.8496932,0.3847948,0.8496932,0.8505999
	c0,0.4658-0.3848,0.8477001-0.8496932,0.8477001c-0.4667068,0-0.8505067-0.3819001-0.8505067-0.8477001
	C0.9404933,1.3212948,1.3222933,0.9385,1.791,0.9385L1.791,0.9385z M2.2343934,0.3799L2.2343934,0.3799
	c0.0409999,0.0147,0.082,0.0273948,0.1210999,0.045c0.04,0.0166,0.0790999,0.0341,0.1171999,0.0537l0.1719-0.1719
	c0.0527-0.0527,0.1406-0.0527,0.1933-0.001l0.0009999,0.001l0.0020001,0.0019l0.4326,0.4316948
	c0.0527,0.0547052,0.0527,0.1406052,0,0.1953052l-0.1719,0.1709c0.0185001,0.04,0.0371001,0.0770999,0.0546999,0.1171999
	c0.0156002,0.0400001,0.0303001,0.0791,0.043,0.1211001h0.2431002c0.0751998,0,0.1376998,0.0614948,0.1376998,0.1377v0.0136v0.5997
	c0,0.0741999-0.0625,0.1366999-0.1387,0.1366999v0.0009h-0.2421c-0.0126998,0.0411-0.0273998,0.0811-0.043,0.1211002
	C3.1386933,2.3936,3.1200933,2.4335999,3.1015933,2.4717l0.1719,0.1729c0.0527,0.0516949,0.0527,0.1386948,0,0.1924l0,0
	L3.2714932,2.8399L2.8378932,3.2695999c-0.0527,0.0566001-0.1406,0.0546949-0.1933,0l-0.1719-0.1709001
	C2.4345932,3.1192,2.3954933,3.1387,2.3554933,3.1524L2.3486934,3.1562948c-0.0362,0.014605-0.0752001,0.029305-0.1143,0.0409999
	v0.2442052c0,0.0752001-0.0605001,0.1385999-0.1367002,0.1385999L2.085,3.5762H1.4843932
	c-0.0762,0-0.1386999-0.0595-0.1386999-0.1347001l0,0V3.1972947c-0.041-0.0116949-0.0810001-0.0282948-0.1191001-0.0448947h-0.002
	l0,0c-0.039-0.0137-0.0781-0.0342002-0.1152-0.0537002L0.9365933,3.2695999c-0.0538,0.0546949-0.1415933,0.0566001-0.1944,0l0,0
	L0.7402933,3.2686l-0.4327-0.4316001c-0.0537-0.0537052-0.0537-0.1407051,0-0.1944001l0.1729-0.1708999
	c-0.0194933-0.0381-0.0391-0.0781-0.0557-0.1171999c-0.0146-0.0400002-0.0302-0.0800002-0.0439-0.1211002h-0.2432
	C0.0624933,2.2333999,0,2.1699998,0,2.0948l0.001-0.0108001v-0.6025C0.001,1.4072948,0.0624933,1.3448,0.1386933,1.3448h0.2441
	c0.0118-0.0420001,0.0274-0.0811,0.043-0.1211001c0.0156-0.0401,0.0352067-0.0791,0.0547-0.1171999l-0.1729-0.1709
	c-0.0537-0.0547-0.0537-0.1406,0-0.1953052v-0.002l0.003-0.0008948l0.4316-0.4317c0.0528067-0.0517,0.1406-0.0517,0.1944,0.001
	l0.1727999,0.1719c0.0742-0.0391,0.1543001-0.0723052,0.2363001-0.0987V0.1368c0-0.0762,0.0616-0.1368,0.1386999-0.1368h0.0039001
	h0.6093999c0.0762,0,0.1367002,0.0606,0.1367002,0.1368v0.0039V0.3799L2.2343934,0.3799z M2.25,0.6778L2.25,0.6778
	c-0.0566068-0.0235052-0.1172068-0.043-0.1777067-0.0576C2.0077932,0.6094,1.959,0.5508,1.959,0.4864v-0.211H1.6210933v0.211
	c0,0.0605-0.0429,0.1191-0.1054,0.1318c-0.128,0.0283-0.2481,0.0810947-0.3575,0.1494l0,0
	c-0.0537001,0.0323-0.125,0.0274-0.1699001-0.0195l-0.1484-0.1504l-0.2403,0.2402l0.1446,0.1446
	c0.0488067,0.0429,0.0605,0.1172,0.0254,0.1727948c-0.0352,0.0557052-0.0655,0.1143051-0.0909,0.1748052
	c-0.0224,0.0557001-0.0419,0.1171948-0.0576,0.1778001c-0.0117,0.0633948-0.0664,0.1122999-0.1347,0.1122999h-0.211v0.3369h0.211
	c0.0625,0,0.1191,0.0439,0.1328,0.1073999c0.0156,0.0645001,0.0351,0.1260002,0.0595,0.1836002
	c0.0254,0.0595999,0.0557,0.1190999,0.0909,0.1727998C0.8007933,2.4747,0.794,2.5449998,0.7480933,2.5899l-0.1485,0.1503947
	l0.2403,0.2392051L0.9824933,2.836c0.0449001-0.0488,0.1181-0.0606,0.1757001-0.0253999
	C1.2128932,2.8448,1.2704933,2.875,1.3300933,2.9003999c0.0567,0.0235,0.1172,0.0411,0.1777,0.0576999
	c0.0655,0.0127001,0.1133,0.0673001,0.1133,0.1357v0.2109001H1.959V3.0937998h0.002
	c0-0.0635052,0.0410001-0.1190999,0.1044934-0.1348c0.0634-0.0156,0.122-0.0332,0.1787-0.0547051L2.25,2.9003999
	C2.3105934,2.875,2.3681931,2.8448,2.4238932,2.8125c0.0527-0.0351,0.1230001-0.0273001,0.1698999,0.0195999l0.1474001,0.1473999
	l0.2393-0.2392051l-0.1436-0.1425948c-0.0488-0.0448999-0.0595-0.1190999-0.0244-0.1768
	c0.0351999-0.0537,0.0645068-0.1122999,0.0899-0.1708999c0.0233998-0.0585001,0.0428998-0.1171,0.0566068-0.1796
	c0.0116932-0.0645001,0.0673931-0.1133001,0.134793-0.1133001h0.2109001v-0.3369H3.0947933c-0.0616,0-0.1192-0.043-0.1337934-0.1084
	C2.9452932,1.4512,2.9257932,1.3877,2.9023933,1.3300999c-0.0253932-0.0595-0.0547001-0.1172-0.0869-0.1698999
	c-0.0362-0.0537-0.0303001-0.1269052,0.0165999-0.1748l0.1484001-0.1475l-0.2393-0.2402L2.5976932,0.7422
	c-0.0439999,0.0489-0.1171999,0.0596-0.1738,0.0254C2.3681931,0.7334,2.3105934,0.7032,2.25,0.6778L2.25,0.6778z M1.791,1.1044999
	L1.791,1.1044999c-0.3769068,0-0.6855067,0.3077-0.6855067,0.6846c0,0.3759999,0.3105067,0.6835999,0.6855067,0.6835999
	s0.6835932-0.3085999,0.6835932-0.6835999C2.4745932,1.4131,2.1659999,1.1044999,1.791,1.1044999L1.791,1.1044999z"/>
</svg>
