<?xml version="1.0" encoding="utf-8"?>
<svg version="1.1" xmlns="http://www.w3.org/2000/svg" xmlns:xlink="http://www.w3.org/1999/xlink" x="0px" y="0px"
	 width="32px" height="32px" viewBox="0 0 32 32" enable-background="new 0 0 32 32" xml:space="preserve">
<path d="M16.0002499,18c-4.9618998,0-9-4.0381002-9-9s4.0380998-9,9-9c4.9624004,0,8.9995003,4.0380998,8.9995003,9
	S20.9626503,18,16.0002499,18z M16.0002499,2c-3.859786,0-7,3.1401-7,7s3.140214,7,7,7c3.8589001,0,6.9995003-3.1400995,6.9995003-7
	S19.8611507,2,16.0002499,2z"/>
<path d="M23.0451794,19.578167c-0.2107639-0.2815056-0.6166782-0.360054-0.9206257-0.1409969l-1.2421379,0.8733006
	l-2.4491501,1.7212353V21.819479c-0.0029278-0.3390751-0.1395321-0.664978-0.3561516-0.9118443l-0.0380535-0.0546417
	c-0.2502823-0.2493076-0.6093597-0.4059162-0.9840508-0.4059162h-2.1544704c-0.3824968,0-0.7254753,0.1566086-0.9757566,0.4059162
	v0.0082932c-0.2575998,0.2493057-0.4142084,0.5927715-0.4142084,0.9679508v0.2180805l-2.4891548-1.7495308l-1.2421379-0.8733025
	c-0.3039484-0.2190571-0.7098637-0.1405087-0.9206266,0.1409969c-0.0785484,0.1244087-0.1170912,0.2654057-0.1170912,0.3898144
	v0.3424911v0.0765972v6.0906715v0.0765972v0.3424911c0,0.1244087,0.0385427,0.2654057,0.1170912,0.3898144
	c0.210763,0.2815056,0.6166782,0.360054,0.9206266,0.1409969l1.2421379-0.8733025l2.4891548-1.7495308v0.2180805
	c0,0.3751793,0.1566086,0.7186451,0.4142084,0.9679508v0.0082932c0.2502813,0.2493076,0.5932598,0.4059162,0.9757566,0.4059162
	h2.1544704c0.374691,0,0.7337685-0.1566086,0.9840508-0.4059162l0.0380535-0.0546417
	c0.2166195-0.2468662,0.3532238-0.5727692,0.3561516-0.9118443v-0.1868572l2.4491501,1.7212353l1.2421379,0.8733006
	c0.3039474,0.2190571,0.7098618,0.1405106,0.9206257-0.1409969c0.0785484-0.1244087,0.1170902-0.2654057,0.1170902-0.3898144
	v-0.3424892v-0.0765972v-6.0906734v-0.0765972v-0.3424892C23.1622696,19.8435726,23.1237278,19.7025757,23.0451794,19.578167z
	 M10.0524931,25.3883076v-4.1601372l2.9667873,2.075922L10.0524931,25.3883076z M17.1174583,24.7716312
	c0,0.0239048-0.0082932,0.0390301-0.0156116,0.0390301c-0.0156116,0.0160999-0.0307369,0.0312233-0.0468369,0.0312233h-2.1544704
	c-0.0239058,0-0.0390301-0.0151234-0.0468359-0.0312233c-0.0151243,0-0.0151243-0.0151253-0.0151243-0.0390301V21.829237
	c0-0.0160999,0-0.0312252,0.0151243-0.0395184c0.0078058-0.0156116,0.0229301-0.0229301,0.0468359-0.0229301h2.1544704
	c0.0160999,0,0.0312252,0.0073185,0.0468369,0.0229301l0.0073185,0.0082932c0,0.0151253,0.0082932,0.0151253,0.0082932,0.0312252
	V24.7716312z M21.850853,25.6239529l-2.9662991-2.075922l2.9662991-2.0847034V25.6239529z"/>
<polygon points="24,30 2.234436,30 3.0454102,22.7060547 6.0964966,21.7104492 6.0964966,19.6293945 1.1890259,21.2939453 0,32 
	26.234436,32 "/>
<polygon points="8,30 29.765564,30 28.9545898,22.7060547 25.9035034,21.7104492 25.9035034,19.6293945 30.8109741,21.2939453 
	32,32 5.765564,32 "/>
</svg>