<?xml version="1.0" encoding="utf-8"?>
<svg version="1.1" id="Layer_1" xmlns="http://www.w3.org/2000/svg" xmlns:xlink="http://www.w3.org/1999/xlink" x="0px" y="0px"
	 width="3.5770874px" height="3.5040131px" viewBox="0 0 3.5770874 3.5040131" enable-background="new 0 0 3.5770874 3.5040131"
	 xml:space="preserve">
<polygon points="1.2314076,1.9083025 1.2334076,1.9083025 1.2314076,1.9083025 "/>
<path d="M0.8729858,1.9083099H0.6494141c-0.0507812,0-0.0957064,0.0213623-0.1309204,0.0545654v0.0020272
	c-0.0332031,0.0322136-0.0545654,0.078112-0.0545654,0.1288933v0.5117188c0,0.0507812,0.0213623,0.0977173,0.0545654,0.1308594
	c0.035214,0.0332031,0.0801392,0.0537109,0.1309204,0.0537109h0.2235718c0.1026001,0,0.1856079-0.0830078,0.1856079-0.1845703
	V2.0937958C1.0585938,1.9932098,0.9755859,1.9083099,0.8729858,1.9083099z M0.8934937,2.6055145
	c0,0.0038452-0.0018921,0.0097656-0.0057983,0.0136719v0.0018921C0.8837891,2.6241302,0.8798828,2.6251068,0.8729858,2.6251068
	H0.6494141c-0.0059204,0-0.0106812-0.0020142-0.0137329-0.0059204C0.6318359,2.6152802,0.6298828,2.6093597,0.6298828,2.6055145
	V2.0937958c0-0.0048828,0.0019531-0.0106812,0.0057983-0.0136719c0.0030518-0.0039062,0.0078125-0.0078125,0.0137329-0.0078125
	h0.2235718c0.006897,0,0.0108032,0.0039062,0.0147095,0.0078125C0.8916016,2.0831146,0.8934937,2.088913,0.8934937,2.0937958
	V2.6055145z"/>
<path d="M1.6885376,1.9628754C1.6553345,1.9296722,1.6083984,1.9083099,1.5576172,1.9083099h-0.328125
	c-0.0448608,0-0.0810547,0.0379639-0.0810547,0.0830078v0.4520874l0.0009766,0.0059204v0.2597046
	c0,0.0429688,0.0371094,0.0810547,0.0819702,0.0810547c0.046936,0,0.0830078-0.0380859,0.0830078-0.0810547V2.5253754h0.2432251
	c0.0507812,0,0.0977173-0.0204468,0.1309204-0.0545654c0.0331421-0.0332031,0.0546875-0.0800781,0.0546875-0.1309075V2.0937958
	C1.7432251,2.0430145,1.7216797,1.9971161,1.6885376,1.9628754z M1.5770874,2.3399024
	c0,0.0059075-0.0008545,0.0107293-0.0047607,0.01372C1.5693359,2.3593597,1.5635376,2.3613739,1.5576172,2.3613739H1.3143921
	V2.0723114h0.2432251c0.0059204,0,0.0117188,0.0039062,0.0147095,0.0078125
	C1.5762329,2.0831146,1.5770874,2.088913,1.5770874,2.0937958V2.3399024z"/>
<path d="M3.0184937,1.1943817l-1.171814-1.1708984c-0.03125-0.031311-0.0849609-0.031311-0.1152954,0
	L0.5596313,1.1943817C0.2510376,1.1993256,0,1.4532318,0,1.7618256v1.1757812c0,0.3104858,0.2568359,0.5664062,0.5654297,0.5664062
	h2.4452515c0.3106079,0,0.5664062-0.2559204,0.5664062-0.5664062V1.7618256
	C3.5770874,1.4532318,3.3251953,1.1993256,3.0184937,1.1943817z M1.7891235,0.1973114l0.9951172,0.9970703H0.7919922
	L1.7891235,0.1973114z M3.3588257,1.7995453v1.0963745v0.0794067c0,0.1600952-0.1317749,0.2929077-0.2910156,0.2929077H2.9658813
	H0.6225586H0.5205688c-0.1600952,0-0.2910156-0.1318359-0.2910156-0.2929077V2.8959198V1.7995453V1.7201385
	c0-0.1602173,0.1318359-0.2910156,0.2910156-0.2910156h0.1019897h2.3433228h0.1019287
	c0.1592407,0,0.2910156,0.1307983,0.2910156,0.2910156V1.7995453z"/>
<path d="M3.0293076,1.9083025L3.0293076,1.9083025c-0.0459001,0-0.0810966,0.038-0.0810966,0.0829999v0.4189
	l-0.2744033-0.457c-0.0127001-0.0264-0.0420001-0.0448999-0.0732-0.0448999c-0.0459001,0-0.0820999,0.038-0.0820999,0.0829999
	v0.7177c0,0.043,0.0361998,0.0811,0.0820999,0.0811c0.0448999,0,0.082-0.0381,0.082-0.0811V2.2891026l0.2733998,0.4561
	c0.0137,0.0272999,0.0430002,0.0448999,0.0733001,0.0448999c0.0459034,0,0.0829999-0.0381,0.0829999-0.0811v-0.7177
	C3.1123075,1.9463025,3.075211,1.9083025,3.0293076,1.9083025L3.0293076,1.9083025z"/>
<path d="M2.3447075,2.0723026L2.3447075,2.0723026c0.0459001,0,0.0840001-0.0351,0.0840001-0.0810001
	c0-0.045-0.0381-0.0829999-0.0840001-0.0829999H1.9170076h-0.002c-0.0448999,0-0.082,0.038-0.082,0.0829999
	c0,0.2372999,0,0.4756,0,0.7138v0.0039001c0,0.043,0.0371001,0.0811,0.082,0.0811h0.4296999
	c0.0459001,0,0.0840001-0.0381,0.0840001-0.0811c0-0.0467999-0.0381-0.0839-0.0840001-0.0839H1.9980077V2.4336026h0.1319
	c0.0467999,0,0.0840001-0.039,0.0840001-0.0839c0-0.0459001-0.0372002-0.0821002-0.0840001-0.0821002h-0.1319V2.0723026H2.3447075
	L2.3447075,2.0723026z"/>
</svg>
