<?xml version="1.0" encoding="iso-8859-1"?>
<svg version="1.1" id="&#x56FE;&#x5C42;_1" xmlns="http://www.w3.org/2000/svg" xmlns:xlink="http://www.w3.org/1999/xlink" x="0px"
	 y="0px" viewBox="0 0 32 32" style="enable-background:new 0 0 32 32;" xml:space="preserve">
<path d="M12.001,18C7.038,18,3,13.963,3,9.001C3,4.038,7.038,0,12.001,0C16.963,0,21,4.038,21,9.001C21,13.963,16.963,18,12.001,18z
	 M12.001,2C8.141,2,5,5.141,5,9.001C5,12.86,8.141,16,12.001,16C15.86,16,19,12.86,19,9.001C19,5.141,15.86,2,12.001,2z"/>
<path d="M23,18v-2c2.757,0,5-2.243,5-4.999c0-2.757-2.243-5-5-5V4c3.859,0,7,3.141,7,7C30,14.86,26.859,18,23,18z"/>
<path d="M32,30h-6v-2h3.693l-0.741-5.197l-3.201-0.859l0.498-1.938l4.494,1.191L32,30z"/>
<path d="M24.125,32h-24.25l1.234-10.422l4.716-1.529l0.617,1.902l-3.498,1.134L2.125,30h19.75l-0.818-6.915l-3.498-1.134
	l0.616-1.902l4.716,1.529L24.125,32z"/>
</svg>
