<?xml version="1.0" encoding="utf-8"?>
<svg version="1.1" xmlns="http://www.w3.org/2000/svg" xmlns:xlink="http://www.w3.org/1999/xlink" x="0px" y="0px"
	 width="19.9039307px" height="19.9039307px" viewBox="0 0 19.9039307 19.9039307"
	 enable-background="new 0 0 19.9039307 19.9039307" xml:space="preserve">
<g id="XMLID_12_">
	<path id="XMLID_24_" d="M6.0323668,13.0959387c0.1074729-0.2072716,0.1688933-0.4401264,0.1688933-0.696022
		c0-0.1509743-0.0204802-0.299387-0.0614204-0.4529219c-0.0409398-0.1535254-0.1125851-0.2917032-0.2098231-0.411973
		c-0.0972376-0.125391-0.2354155-0.2251806-0.4043083-0.3019485c-0.1637707-0.0742064-0.3684812-0.1125946-0.5936618-0.1125946
		H3.6782002c-0.1791279,0-0.3224185,0.0562973-0.4247787,0.1714439c-0.0972378,0.1074724-0.1484129,0.2763662-0.1484129,0.5117817
		v3.1832438c0,0.1688929,0.0460627,0.3096218,0.1330655,0.4273405c0.1944757,0.2302923,0.5629466,0.2354155,0.757422-0.0051231
		c0.087003-0.110034,0.1279428-0.2482119,0.1279428-0.4222174v-1.0798502h0.6141319
		c0.1944757,0,0.2610083,0.0870028,0.2917132,0.1535349c0.0409503,0.0921259,0.0921254,0.2917137,0.0921254,0.7318401
		c0,0.0665321,0.0051126,0.1381779,0.0153475,0.20471c0.0102348,0.0793295,0.030715,0.1637707,0.0665326,0.253335
		c0.0409403,0.094676,0.1023602,0.1740055,0.1791282,0.2354155c0.0869927,0.0690842,0.1944757,0.1023502,0.317296,0.1023502
		c0.1279426,0,0.2405381-0.0460529,0.3377757-0.1432905c0.0972381-0.0972376,0.1484132-0.2149458,0.1484132-0.3531332
		c0-0.0639715-0.015358-0.1509647-0.0409403-0.2865906c-0.0153575-0.0844421-0.0358276-0.1663218-0.0460625-0.2558861
		c-0.0102353-0.0742064-0.015358-0.1714439-0.015358-0.3070707c0-0.2584476-0.0358171-0.4708319-0.1023502-0.6294794
		c-0.0358276-0.0742064-0.0921149-0.1612091-0.1842403-0.2303038C5.8890767,13.3108845,5.9658341,13.2162085,6.0323668,13.0959387z
		 M5.2710977,12.8093376c-0.030705,0.0742168-0.0767574,0.1330662-0.1279426,0.1740055
		c-0.0562978,0.0383892-0.1125855,0.0665331-0.1791182,0.0818911c-0.0665326,0.0153475-0.1381779,0.0230312-0.220068,0.0230312
		H3.9916592v-1.1131172h0.7779021c0.1791182,0,0.317296,0.0409403,0.4094214,0.1202688
		c0.0921149,0.079319,0.1381779,0.2251806,0.1381779,0.4375648C5.3171606,12.6430168,5.3018131,12.7351313,5.2710977,12.8093376z"/>
	<path id="XMLID_21_" d="M9.5124464,11.6731997c-0.1586475-0.2098331-0.3531227-0.3710423-0.5783033-0.4810658
		c-0.460597-0.2251911-1.0747285-0.2251911-1.5353346,0c-0.2251806,0.1100235-0.4196563,0.2712326-0.5731816,0.4810658
		c-0.1535354,0.2021494-0.2712436,0.4401264-0.348011,0.7139311c-0.0767679,0.2789173-0.1177077,0.5757427-0.1177077,0.8802528
		c0,0.3121834,0.0358171,0.6192436,0.1023502,0.9135189c0.0716553,0.2942743,0.1791277,0.537364,0.3224182,0.742074
		c0.1484232,0.2175074,0.3428984,0.3889513,0.568079,0.5092201c0.2354159,0.1177082,0.506659,0.1791182,0.8137197,0.1791182
		c0.2917137,0,0.5578346-0.0639715,0.7932501-0.1944752c0.2251902-0.127943,0.409421-0.3019485,0.568079-0.5245676
		c0.1535254-0.2251806,0.2661209-0.4759541,0.332653-0.7471972c0.0716457-0.2661209,0.1074734-0.5527115,0.1074734-0.8776913
		c0-0.3173065-0.0409403-0.6141319-0.1125956-0.8802528C9.7785673,12.1158876,9.6608601,11.875349,9.5124464,11.6731997z
		 M8.9085503,13.8149824c-0.0255823,0.1509743-0.0767679,0.2917128-0.1484127,0.4222174
		c-0.0562983,0.1125851-0.1381779,0.1970367-0.2405386,0.2635593c-0.189353,0.1228304-0.5322413,0.1202688-0.7216043-0.0025511
		c-0.0972381-0.0614204-0.1740055-0.1433001-0.2405281-0.2610083c-0.0562978-0.1074724-0.1023607-0.2456503-0.1330657-0.4170952
		c-0.030705-0.1663313-0.0409398-0.3505726-0.0409398-0.552721c0-0.3838291,0.0665326-0.6934614,0.2098227-0.9135189
		c0.1330657-0.2123947,0.317306-0.3121834,0.5731916-0.3121834c0.2558861,0,0.4401264,0.0997887,0.5731916,0.3096218
		c0.143301,0.2226191,0.2098236,0.5322514,0.2098236,0.9160805C8.9494905,13.4644203,8.9392548,13.6486502,8.9085503,13.8149824z"/>
	<path id="XMLID_18_" d="M13.335,11.6731997c-0.158658-0.2098331-0.3531332-0.3710423-0.5783138-0.4810658
		c-0.460597-0.2251911-1.074728-0.2251911-1.5353251,0c-0.2251806,0.1100235-0.4196558,0.2712326-0.5731916,0.4810658
		c-0.1535349,0.2021494-0.2712431,0.4401264-0.348011,0.7139311c-0.076767,0.2789173-0.1177073,0.5757427-0.1177073,0.8802528
		c0,0.3121834,0.0358276,0.6192436,0.1023598,0.9135189c0.0716457,0.2942743,0.1791182,0.537364,0.3224192,0.742074
		c0.1484127,0.2175074,0.3428879,0.3889513,0.5680685,0.5092201c0.2354155,0.1177082,0.5066595,0.1791182,0.8137302,0.1791182
		c0.2917032,0,0.5578337-0.0639715,0.7932491-0.1944752c0.2251806-0.127943,0.4094219-0.3019485,0.5680695-0.5245676
		c0.1535358-0.2251806,0.2661209-0.4759541,0.332654-0.7471972c0.0716553-0.2661209,0.1074724-0.5527115,0.1074724-0.8776913
		c0-0.3173065-0.0409403-0.6141319-0.1125851-0.8802528C13.6011209,12.1158876,13.4834127,11.875349,13.335,11.6731997z
		 M12.7311029,13.8149824c-0.0255919,0.1509743-0.076767,0.2917128-0.1484222,0.4222174
		c-0.0562878,0.1125851-0.1381779,0.1970367-0.2405281,0.2635593c-0.1893635,0.1228304-0.5322523,0.1202688-0.7216053-0.0025511
		c-0.0972376-0.0614204-0.1740055-0.1433001-0.2405376-0.2610083c-0.0562983-0.1074724-0.1023502-0.2456503-0.1330652-0.4170952
		c-0.0307055-0.1663313-0.0409403-0.3505726-0.0409403-0.552721c0-0.3838291,0.0665321-0.6934614,0.2098331-0.9135189
		c0.1330547-0.2123947,0.317296-0.3121834,0.5731916-0.3121834c0.2558851,0,0.4401264,0.0997887,0.5731812,0.3096218
		c0.143301,0.2226191,0.2098331,0.5322514,0.2098331,0.9160805C12.7720432,13.4644203,12.7618084,13.6486502,12.7311029,13.8149824z
		"/>
	<path id="XMLID_4_" d="M16.3548985,11.5759621l-0.5220165,2.1520176l-0.5322409-2.1545792
		c-0.0460625-0.1765566-0.1074734-0.3045092-0.1893635-0.3889503c-0.0818796-0.0921154-0.2098227-0.1381779-0.3633585-0.1381779
		h-0.220068c-0.1484127,0-0.2763557,0.0460625-0.378706,0.1381779c-0.1074724,0.0972376-0.1637707,0.2507725-0.1637707,0.458045
		v3.3572493c0,0.1509743,0.0358181,0.2840395,0.1074734,0.3940639c0.0716448,0.125391,0.20471,0.1944752,0.3633585,0.1944752
		c0.1586475,0,0.2917128-0.0690842,0.3633585-0.1919146c0.0665321-0.1074724,0.1023598-0.237977,0.1023598-0.3966246v-1.5583553
		l0.4503613,1.7784233c0.0665331,0.237977,0.2303038,0.3684711,0.4503613,0.3684711
		c0.2303028,0,0.3889523-0.1330557,0.4503613-0.3710327l0.4503708-1.7758617v1.5583553
		c0,0.1586475,0.0358181,0.2891521,0.1074734,0.3991861c0.0767689,0.1253815,0.20471,0.189353,0.3633595,0.189353
		c0.1535339,0,0.281477-0.0665226,0.3633575-0.1919146c0.0665321-0.1074724,0.1023598-0.237977,0.1023598-0.3966246v-3.3572493
		c0-0.2149458-0.0511837-0.363369-0.1586571-0.458045c-0.1023502-0.0921154-0.2302933-0.1381779-0.3838291-0.1381779h-0.2098217
		c-0.1484241,0-0.271244,0.0435009-0.3684826,0.1381779C16.4623718,11.2688913,16.4009609,11.3968439,16.3548985,11.5759621z"/>
	<path id="XMLID_13_" d="M19.0382671,3.2827792c0.4760246,0,0.8656635-0.3934662,0.8656635-0.8744922
		c0-0.4807019-0.3896389-0.8741682-0.8656635-0.8741682h-2.9774704h-0.0608435h-0.9113626h-2.0661077h-0.2209892h-0.6903734
		h-0.060853h-2.226244H9.7631798h-0.690383H7.7475181H6.7857094H4.7700477H4.7092042H1.7317743V0.7947777
		c0-0.4371296-0.3541764-0.7947784-0.7870439-0.7947784H0.7870341c-0.4328676,0-0.7870338,0.3576488-0.7870338,0.7947784v3.2273428
		c0,0.4371295,0.3541662,0.7947783,0.7870338,0.7947783h0.1576963c0.4328675,0,0.7870439-0.3576488,0.7870439-0.7947783V3.2827792
		h2.0871651v2.8743911c-1.3791363,0.0515599-2.4936099,1.2851486-2.4936099,2.790061v8.1617374
		c0,1.5373688,1.1622977,2.7949619,2.5824754,2.7949619h12.8928089c1.4201775,0,2.5824757-1.2575932,2.5824757-2.7949619V8.9472313
		c0-1.4517026-1.0367146-2.6525612-2.3479614-2.782033V3.2827792H19.0382671z M5.3684268,3.2827792h1.4172826h0.9618087h1.3252788
		h0.690383h0.0608435h2.226244h0.060853h0.6903734h0.2209892h2.0661077h0.3970499v2.8694916H5.3684268V3.2827792z
		 M18.2586136,8.9380188v8.1811848c0,0.9037895-0.6771412,1.6363087-1.5119095,1.6363087H3.9620273
		c-0.8353946,0-1.5122221-0.7325191-1.5122221-1.6363087V8.9380188c0-0.9037895,0.6768274-1.6363077,1.5122221-1.6363077h12.7846766
		C17.5814724,7.3017111,18.2586136,8.0342293,18.2586136,8.9380188z"/>
</g>
</svg>
