<?xml version="1.0" encoding="utf-8"?>
<svg version="1.1" id="Layer_1" xmlns="http://www.w3.org/2000/svg" xmlns:xlink="http://www.w3.org/1999/xlink" x="0px" y="0px"
	 width="3.5761073px" height="3.1727998px" viewBox="0 0 3.5761073 3.1727998" enable-background="new 0 0 3.5761073 3.1727998"
	 xml:space="preserve">
<path d="M2.4589999,3.0077999H1.1172c-0.0450001,0-0.0820928,0.0371001-0.0820928,0.082
	c0,0.0469,0.0370927,0.0829999,0.0820928,0.0829999h1.3417999c0.0468001,0,0.0829999-0.0360999,0.0829999-0.0829999
	C2.5419998,3.0448999,2.5058,3.0077999,2.4589999,3.0077999L2.4589999,3.0077999z M2.5848999,0.959L2.5848999,0.959
	C2.5839999,0.9531,2.582,0.9482,2.5801072,0.9443L2.5721998,0.9199c-0.0019-0.0059-0.0057998-0.0117-0.0086999-0.0176
	L2.5507998,0.8807999C2.5488,0.8769,2.5448999,0.872,2.54,0.8672L2.5233998,0.8495886
	C2.5184999,0.8447,2.5146,0.8418,2.5096998,0.8398L2.4872999,0.8222C2.4844,0.8183,2.4784999,0.8164,2.4745998,0.8144L2.4482,0.8017
	C2.4424,0.7998,2.4375,0.7978,2.4315999,0.7968L2.4061999,0.791c-0.0067999,0-0.0146-0.002-0.0215001-0.002h-0.0214
	C2.3594,0.7871,2.3515,0.789,2.3476,0.791L2.3222001,0.7949c-0.0058,0-0.0097001,0.0019-0.0156002,0.0029L2.2811999,0.8075886
	C2.2763,0.8085886,2.2733998,0.8105,2.2676001,0.8144L2.2441072,0.8281C2.2402,0.832,2.2344,0.834,2.2303998,0.8398L1.415,1.5
	c-0.0166,0.0107-0.0322,0.0253999-0.0488,0.0371L1.3633,1.5429C1.3496,1.5547,1.3369,1.5683,1.3221999,1.582
	C1.3105,1.5985886,1.2959,1.6151999,1.2851073,1.6328C1.2704999,1.6513,1.2596999,1.6698999,1.248,1.6875
	C1.2383,1.7031,1.2285,1.7225885,1.2197,1.7441c-0.0088,0.0186-0.0165927,0.0390999-0.0234001,0.0605999
	c-0.0069,0.0195-0.0127,0.041-0.0175999,0.0586001c-0.0039001,0.0214-0.0068001,0.0419-0.0088,0.0615l-0.002,0.0067886
	C1.166,1.9502,1.1639999,1.9686999,1.1639999,1.9863v0.0067999c0,0.0204887,0,0.0381,0.0020001,0.0547001
	C1.1679,2.0653999,1.1698999,2.0869,1.1727999,2.1073999C1.1758,2.1289001,1.1797,2.1483998,1.1855,2.1670001
	C1.1913999,2.1845,1.1962999,2.2040999,1.2041073,2.2245886C1.2108999,2.2460999,1.2197,2.2635887,1.2275,2.2802
	c0.0088,0.0165999,0.0186074,0.0362,0.0303,0.0518v0.0019999c0.0098,0.0165887,0.0215,0.0341001,0.0342,0.0506999
	C1.3047,2.4013,1.3183,2.4178998,1.332,2.4335885l0.0038999,0.0019114c0.0117,0.0137,0.0254,0.0274,0.0391001,0.0390887
	c0.0166,0.0146112,0.0331999,0.0293114,0.0526999,0.0409999C1.4453,2.5293,1.4628999,2.5409999,1.4804,2.5527
	c0.0175999,0.0077999,0.0352,0.0175998,0.0567073,0.0273998C1.5566,2.5888,1.5761073,2.5957,1.5967,2.6025
	c0.0214074,0.0088,0.0419,0.0127001,0.0595,0.0186C1.6776999,2.625,1.6971999,2.6289001,1.7177,2.6308l0.0069,0.0009999
	C1.7441072,2.6338,1.7627,2.6346998,1.7793,2.6357h0.0078073c0.0194927,0,0.0370927,0,0.0526928-0.0019
	C1.8593999,2.6327999,1.8799,2.6308,1.9003999,2.6269c0.0215-0.0039001,0.041-0.0078001,0.0605-0.0136001
	C1.9785,2.6092999,1.997,2.6025,2.0176001,2.5957C2.0371072,2.5888,2.0565999,2.5800998,2.0741999,2.5721998
	c0.0156-0.0086999,0.0352001-0.0174999,0.0527-0.0293l0,0l0,0c0.0165999-0.0107,0.0332074-0.0233998,0.0508001-0.0351
	L2.1805999,2.5058l0,0l0,0C2.1972001,2.4930999,2.2119,2.4803998,2.2265,2.4668l0,0
	C2.2402,2.4550998,2.2549,2.4403999,2.2695,2.4227998C2.2832,2.4082,2.2969,2.3915887,2.3104999,2.3729999
	c0.0117002-0.0184999,0.0253999-0.0351,0.0342-0.0527c0.0088-0.0186,0.0205002-0.0381,0.0283-0.0585999
	c0.0098-0.0176001,0.0176001-0.0391114,0.0235-0.0585999C2.4043,2.1815886,2.4101074,2.1610999,2.414,2.1425886v-0.003
	L2.415,2.1376998C2.4189,2.1201,2.4208999,2.1015,2.4238,2.082l0.165-1.0439V1.0273l0.003-0.0254c0-0.0068,0-0.0117-0.003-0.0166
	L2.5848999,0.959L2.5848999,0.959z M2.4257998,1.0175886L2.4257998,1.0175886l-0.1640999,1.039v0.0019999L2.2607,2.0604999
	c-0.0019,0.0137-0.0039001,0.0264001-0.0067999,0.043l-0.0010002,0.0019c-0.0049,0.0157001-0.0067925,0.0323-0.0107,0.0450001
	C2.2363,2.164,2.2295001,2.1805885,2.2245998,2.1933C2.2186999,2.207,2.2098999,2.2225885,2.2031074,2.2363
	C2.1933,2.2519,2.1835999,2.2675886,2.1757998,2.2763c-0.0098,0.0146999-0.0195999,0.0253999-0.0293,0.0381
	c-0.0088,0.0098-0.0195999,0.0195999-0.0323,0.0323v0.0008886C2.1034999,2.3553998,2.0918,2.3652,2.082,2.3739998L2.0801072,2.3769
	C2.0674,2.3846998,2.0565999,2.3934999,2.0409999,2.4013C2.0293,2.4101,2.0156,2.4159999,2.0009999,2.4227998
	C1.9883,2.4315886,1.9726,2.4354999,1.9608999,2.4414001c-0.0127,0.0038998-0.0273,0.0096998-0.043,0.0136998
	C1.9013,2.4589999,1.8866999,2.4619,1.875,2.4638c-0.0147001,0.003-0.0293001,0.0049-0.0458927,0.0069001
	c-0.0137073,0-0.0264074,0-0.0391073,0H1.7842c-0.0147001,0-0.0283999-0.0020001-0.0410926-0.0020001L1.7392,2.4668
	C1.7246,2.4647999,1.709,2.4628999,1.6933,2.4589999C1.6776999,2.457,1.6621072,2.4510999,1.6494,2.4471998
	C1.6346999,2.4424,1.6201073,2.4375,1.6054,2.4296999c-0.0117-0.0049-0.0282927-0.0137-0.0429-0.0195999
	C1.5468999,2.3983998,1.5342,2.3905885,1.5233999,2.3808c-0.0146-0.0078001-0.0254-0.0175002-0.0381-0.0283l0,0
	c-0.0088-0.0088-0.0204999-0.0185001-0.0301926-0.0283L1.4531072,2.3202999C1.4413999,2.3085885,1.4316,2.2967999,1.4238,2.2851
	c-0.0088-0.0117002-0.0176001-0.0244-0.0254-0.0371001C1.3906,2.2363,1.3828,2.2225885,1.375,2.2079999
	C1.3681073,2.1933,1.3633,2.1796999,1.3573999,2.1670001C1.3535,2.1543,1.3496,2.1395886,1.3447,2.1229999
	c-0.0049-0.0156-0.0078-0.0293-0.0088-0.0428998C1.334,2.0674,1.332,2.0507998,1.3301073,2.0351
	C1.3281072,2.0214999,1.3281072,2.0077999,1.3281072,1.997l0.0020001-0.0068001c0-0.0146114,0-0.0273,0.0018927-0.04V1.9462999
	c0.002-0.0157113,0.0049-0.0323,0.0078-0.0459c0.0038999-0.0166,0.0078-0.0312999,0.0116999-0.045
	c0.0059-0.0156,0.0118001-0.0293,0.0176073-0.0429C1.375,1.7988,1.3828,1.7842,1.3916,1.7694999
	c0.0087999-0.0156,0.0175999-0.0293,0.0253999-0.0409999c0.0107-0.0127001,0.0195-0.0254,0.0302-0.0361
	c0.0079074-0.0108114,0.0176001-0.0206,0.0293-0.0303L1.4785,1.6601c0.0137-0.0117,0.0233999-0.0215114,0.0351-0.0312001
	l0.002-0.002l0.8183999-0.6592L2.3476,0.959l0.0098-0.0039l0.0098-0.002H2.3769L2.3885999,0.957l0.0088,0.0039L2.4082,0.9677
	L2.415,0.9745886l0.0049,0.0097114L2.4238,0.9931l0.0019999,0.0127V1.0175886L2.4257998,1.0175886z M3.4452999,1.1102999
	L3.4452999,1.1102999L3.4413998,1.1035C3.3495998,0.8847,3.2177,0.6875,3.0537,0.5224
	c-0.1651001-0.164-0.3622999-0.2959-0.582-0.3877C2.2597001,0.0468,2.0293,0,1.7881073,0C1.2939,0,0.8476,0.1992,0.5234,0.5224
	c-0.165,0.1651-0.2969,0.3623-0.3867,0.5821C0.0478,1.3154,0,1.5468,0,1.7881c0,0.2391999,0.0478,0.4726,0.1367,0.6844885
	c0.0898,0.2188115,0.2217,0.4160001,0.3867,0.5801113c0.0547073,0.0527,0.1406,0.0527,0.1953,0
	c0.0528-0.0526998,0.0528-0.1406,0-0.1952999c-0.1405927-0.1387-0.2539-0.3046999-0.3301-0.4893
	c-0.0732-0.1787-0.1132-0.375-0.1132-0.5799999c0-0.2061,0.04-0.4014001,0.1132-0.5791
	c0.0762-0.1836001,0.1895073-0.3516,0.3301-0.4922c0.2735-0.2735,0.6514073-0.4414,1.0694072-0.4414
	c0.206,0,0.4012927,0.039,0.5790926,0.1131886C2.5507998,0.4668,2.7186999,0.5761,2.8594,0.7168
	c0.1385999,0.1406,0.2519,0.3066,0.3281,0.4922l0.0028999,0.0078c0.0713,0.1747886,0.1122999,0.3672,0.1122999,0.5713
	c0,0.2049999-0.0409999,0.4013-0.1151998,0.5799999C3.1113,2.5527,3,2.7186999,2.8594,2.8573999
	C2.8046999,2.9120998,2.8046999,3,2.8594,3.0526998c0.0527072,0.0527,0.1406,0.0527,0.1942999,0
	C3.2168,2.8885887,3.3495998,2.6914001,3.4413998,2.4707C3.5293,2.2607,3.5761073,2.0272999,3.5761073,1.7881
	C3.5761073,1.5488,3.5293,1.3192999,3.4452999,1.1102999L3.4452999,1.1102999z M2.0878999,1.9247999L2.0878999,1.9247999
	C2.0683,1.8495886,2.0195,1.7822,1.9482,1.7412C1.875,1.6991999,1.7929,1.6904,1.7177,1.7119l0,0
	C1.6425999,1.7304,1.5761073,1.7811999,1.5342,1.8514999C1.4941072,1.9227999,1.4843999,2.0058,1.5049,2.082l0,0
	c0.0195,0.0741999,0.0673,0.1405885,0.1406,0.1815886c0.0713,0.043,0.1553,0.0528114,0.2295001,0.0313113l0,0
	C1.9502,2.2744,2.0165999,2.2265,2.0585999,2.1543C2.0995998,2.082,2.1094,2,2.0878999,1.9247999L2.0878999,1.9247999
	L2.0878999,1.9247999z M1.916,2.0713L1.916,2.0713C1.8965,2.1053998,1.8671999,2.1269,1.8319999,2.1357
	C1.7988,2.1445,1.7607,2.1415887,1.7285,2.1210999C1.6942999,2.1034999,1.6718999,2.0713,1.6639999,2.039l0,0
	c-0.0096999-0.0351-0.0038927-0.0703001,0.0137-0.1054114c0.0195-0.0331887,0.0488-0.0546887,0.0830001-0.0624887h0.0009999
	c0.0332-0.0098,0.0703-0.0078,0.1035,0.0136c0.0332,0.0186,0.0547,0.0488887,0.0645,0.0821v0.0019
	C1.9394,2.0009999,1.9354999,2.039,1.916,2.0713L1.916,2.0713z"/>
</svg>
