<?xml version="1.0" encoding="utf-8"?>
<svg version="1.1" id="Layer_1" xmlns="http://www.w3.org/2000/svg" xmlns:xlink="http://www.w3.org/1999/xlink" x="0px" y="0px"
	 width="16px" height="14.0000248px" viewBox="0 0 16 14.0000248" enable-background="new 0 0 16 14.0000248" xml:space="preserve">
<circle cx="7.9999866" cy="3.000025" r="2.9996884"/>
<path d="M13,9.0000248c0,0,1,1,1,3v2h2v-2C16,10.3428249,14.6571865,9.0000248,13,9.0000248z"/>
<path d="M0,12.0000248v2h2v-2c0-2,1-3,1-3C1.3427868,9.0000248,0,10.3428249,0,12.0000248z"/>
<circle cx="14" cy="6.0000248" r="2"/>
<circle cx="2" cy="6.0000248" r="2"/>
<path d="M8.04,8.0000248H7.96c-2.1875134,0-3.96,1.7725-3.96,3.96v2.04h8v-2.04
	C12,9.7725248,10.2274866,8.0000248,8.04,8.0000248z"/>
</svg>
