<?xml version="1.0" encoding="utf-8"?>
<svg version="1.1" id="Layer_1" xmlns="http://www.w3.org/2000/svg" xmlns:xlink="http://www.w3.org/1999/xlink" x="0px" y="0px"
	 width="16px" height="16px" viewBox="0 0 16 16" enable-background="new 0 0 16 16" xml:space="preserve">
<path d="M16,4.0588002L12.8529997,0H2.9705927L0,4.0293999l1,0.0019002V16h14V4.0570002
	L16,4.0588002z M9,5v2H7V5H9z M5,15H3v-2h2V15z M5,11H3V9h2V11z M5,7H3V5h2V7z M10,15H9H7H6V9h4V15z M13,15h-2v-2h2V15z M13,11h-2V9
	h2V11z M13,7h-2V5h2V7z"/>
</svg>
