<svg xmlns="http://www.w3.org/2000/svg" xmlns:xlink="http://www.w3.org/1999/xlink" preserveAspectRatio="xMidYMid" width="60" height="60" viewBox="0 0 60 60">
  <path fill="#46cccc" d="M30.000,60.000 C13.432,60.000 0.000,46.569 0.000,30.000 C0.000,13.432 13.432,0.000 30.000,0.000 C46.569,0.000 60.000,13.432 60.000,30.000 C60.000,46.569 46.569,60.000 30.000,60.000 ZM30.000,5.625 C16.538,5.625 5.625,16.538 5.625,30.000 C5.625,43.462 16.538,54.375 30.000,54.375 C43.462,54.375 54.375,43.462 54.375,30.000 C54.375,16.538 43.462,5.625 30.000,5.625 ZM43.239,24.489 L28.239,39.489 L28.239,39.489 C27.730,39.998 27.027,40.313 26.250,40.313 C25.473,40.313 24.770,39.998 24.261,39.489 L24.261,39.489 L15.824,31.051 L15.824,31.051 C15.315,30.542 15.000,29.839 15.000,29.063 C15.000,27.509 16.259,26.250 17.813,26.250 C18.589,26.250 19.292,26.565 19.801,27.074 L19.801,27.074 L26.250,33.523 L39.261,20.511 L39.261,20.511 C39.770,20.002 40.473,19.688 41.250,19.688 C42.803,19.688 44.063,20.947 44.063,22.500 C44.063,23.277 43.748,23.980 43.239,24.489 L43.239,24.489 ZM43.125,19.687 C43.125,19.687 43.125,19.688 43.125,19.688 C43.125,19.688 43.125,19.688 43.125,19.689 L43.125,19.687 ZM19.688,43.125 C19.687,43.125 19.687,43.125 19.687,43.125 L19.688,43.125 C19.688,43.125 19.688,43.125 19.688,43.125 ZM40.313,43.125 C40.312,43.125 40.312,43.125 40.312,43.125 L40.313,43.125 C40.313,43.125 40.313,43.125 40.313,43.125 ZM43.125,40.314 L43.125,40.312 C43.125,40.312 43.125,40.312 43.125,40.313 C43.125,40.313 43.125,40.313 43.125,40.314 Z" class="cls-1"/>
</svg>
