<?xml version="1.0" encoding="utf-8"?>
<svg version="1.1" id="Layer_1" xmlns="http://www.w3.org/2000/svg" xmlns:xlink="http://www.w3.org/1999/xlink" x="0px" y="0px"
	 width="13.9589996px" height="14.1625996px" viewBox="0 0 13.9589996 14.1625996"
	 enable-background="new 0 0 13.9589996 14.1625996" xml:space="preserve">
<path d="M13.9589996,12.0410004l-3.7363043-3.7363005C10.7128954,7.4819002,11,6.5249,11,5.5
	C11,2.4672999,8.532196,0,5.5,0C2.4677958,0,0,2.4672999,0,5.5S2.4677958,11,5.5,11
	c0.9184957,0,1.7836957-0.2294998,2.5458956-0.6294003l3.7915001,3.7919998L13.9589996,12.0410004z M1,5.5
	C1,3.0186,3.0185959,1,5.5,1C7.9813957,1,10,3.0186,10,5.5S7.9813957,10,5.5,10C3.0185959,10,1,7.9814,1,5.5z"/>
</svg>
