<svg xmlns="http://www.w3.org/2000/svg" xmlns:xlink="http://www.w3.org/1999/xlink" preserveAspectRatio="xMidYMid" width="13.969" height="14" viewBox="0 0 13.969 14">
  <path d="M1.709,0.254 L0.416,1.554 C-0.298,2.271 0.046,3.128 0.416,4.152 C0.416,4.152 2.194,7.196 4.493,9.505 C6.936,11.960 9.790,13.570 9.790,13.570 C10.733,14.057 11.662,14.287 12.376,13.570 L13.669,12.271 C14.026,11.912 14.102,11.273 13.669,10.972 L11.083,9.023 C10.645,8.725 10.147,8.664 9.790,9.023 L9.790,9.023 L9.790,9.023 L9.025,9.792 C8.129,9.119 7.131,8.300 6.235,7.399 C5.442,6.603 4.737,5.739 4.150,4.947 L4.942,4.152 C5.299,3.793 5.238,3.293 4.942,2.853 L3.002,0.254 C2.645,-0.104 2.066,-0.104 1.709,0.254 " class="cls-1"/>
</svg>
