<svg xmlns="http://www.w3.org/2000/svg" xmlns:xlink="http://www.w3.org/1999/xlink" preserveAspectRatio="xMidYMid" width="15" height="19.969" viewBox="0 0 15 19.969">
  <defs>
    <style>
      .cls-1 {
        fill: #bcc4c8;
        fill-rule: evenodd;
      }
    </style>
  </defs>
  <path d="M13.754,19.976 L1.255,19.976 C0.564,19.976 0.005,19.416 0.005,18.727 L0.005,9.981 C0.005,9.291 0.564,8.731 1.255,8.731 L1.255,6.232 C1.255,2.782 4.053,-0.015 7.505,-0.015 C10.528,-0.015 13.049,2.132 13.629,4.983 L11.025,4.983 C10.508,3.530 9.135,2.484 7.505,2.484 C5.433,2.484 3.754,4.162 3.754,6.232 L3.754,8.731 L13.754,8.731 L13.754,6.232 L13.754,6.232 L13.754,8.731 C14.445,8.731 15.004,9.291 15.004,9.981 L15.004,18.727 C15.004,19.416 14.445,19.976 13.754,19.976 ZM12.504,11.230 L2.505,11.230 L2.505,17.477 L12.504,17.477 L12.504,11.230 Z" class="cls-1"/>
</svg>
