<svg xmlns="http://www.w3.org/2000/svg" xmlns:xlink="http://www.w3.org/1999/xlink" preserveAspectRatio="xMidYMid" width="20" height="20" viewBox="0 0 20 20">
  <defs>
    <style>
      .cls-1 {
        fill: #bcc4c8;
        fill-rule: evenodd;
      }
    </style>
  </defs>
  <path d="M10.000,20.000 C4.477,20.000 0.000,15.523 0.000,10.000 C0.000,4.477 4.477,0.000 10.000,0.000 C15.523,0.000 20.000,4.477 20.000,10.000 C20.000,15.523 15.523,20.000 10.000,20.000 ZM10.000,1.875 C5.513,1.875 1.875,5.513 1.875,10.000 C1.875,12.099 2.677,14.005 3.983,15.447 C5.160,14.877 4.728,15.351 6.268,14.717 C7.843,14.070 8.217,13.844 8.217,13.844 L8.231,12.351 C8.231,12.351 7.641,11.903 7.458,10.498 C7.089,10.604 6.967,10.068 6.945,9.727 C6.925,9.397 6.731,8.367 7.182,8.460 C7.090,7.772 7.023,7.152 7.056,6.823 C7.169,5.670 8.288,4.465 10.012,4.377 C12.040,4.465 12.843,5.669 12.956,6.822 C12.989,7.151 12.916,7.772 12.824,8.458 C13.275,8.366 13.079,9.395 13.057,9.725 C13.037,10.066 12.912,10.600 12.544,10.495 C12.360,11.899 11.770,12.344 11.770,12.344 L11.784,13.829 C11.784,13.829 12.157,14.040 13.732,14.688 C15.272,15.322 14.840,14.876 16.017,15.447 C17.323,14.005 18.125,12.099 18.125,10.000 C18.125,5.513 14.487,1.875 10.000,1.875 Z" class="cls-1"/>
</svg>
