<?xml version="1.0" encoding="utf-8"?>
<svg version="1.1" xmlns="http://www.w3.org/2000/svg" xmlns:xlink="http://www.w3.org/1999/xlink" x="0px" y="0px"
	 width="32px" height="32px" viewBox="0 0 32 32" enable-background="new 0 0 32 32" xml:space="preserve">
<path d="M15.7777853,18c-4.9618998,0-9-4.0381002-9-9s4.0380998-9,9-9c4.9623995,0,8.9994993,4.0380998,8.9994993,9
	S20.7401848,18,15.7777853,18z M15.7777853,2c-3.8597851,0-6.999999,3.1401-6.999999,7s3.140214,7,6.999999,7
	c3.858901,0,6.9994993-3.1400995,6.9994993-7S19.6386852,2,15.7777853,2z"/>
<path d="M29.1171856,32H2.882786l1.1889999-10.7061005l5.5560999-2.2236004l0.7441998,1.8594017l-4.4438996,1.7763996L5.1171861,30
	h21.7656002l-0.8105011-7.2938995l-4.4443989-1.7763996l0.7441998-1.8594017l5.5555992,2.2236004L29.1171856,32z"/>
</svg>
