<svg xmlns="http://www.w3.org/2000/svg" xmlns:xlink="http://www.w3.org/1999/xlink" preserveAspectRatio="xMidYMid" width="14" height="14" viewBox="0 0 14 14">
  <path d="M14.009,11.384 C14.009,12.833 12.832,14.009 11.380,14.009 L10.170,14.009 C10.692,13.552 11.076,12.950 11.256,12.259 L11.380,12.259 C11.865,12.259 12.257,11.867 12.257,11.384 C12.031,10.512 11.434,9.781 10.661,9.310 C10.252,8.603 9.701,7.966 9.033,7.451 C9.135,7.278 9.222,7.098 9.298,6.913 C9.997,6.683 10.504,6.033 10.504,5.259 L10.504,3.509 C10.504,2.734 9.997,2.084 9.297,1.854 C9.012,1.160 8.543,0.567 7.964,0.105 C8.218,0.046 8.480,0.009 8.751,0.009 C10.687,0.009 12.257,1.576 12.257,3.509 L12.257,5.259 C12.257,6.196 11.882,7.042 11.283,7.670 C12.657,8.431 13.739,9.779 14.009,11.384 ZM8.751,5.259 C8.751,6.196 8.378,7.042 7.777,7.670 C9.152,8.431 10.234,9.779 10.504,11.384 C10.504,12.833 9.327,14.009 7.875,14.009 L2.617,14.009 C1.165,14.009 -0.012,12.833 -0.012,11.384 C0.259,9.779 1.340,8.431 2.715,7.670 C2.115,7.042 1.741,6.196 1.741,5.259 L1.741,3.509 C1.741,1.576 3.310,0.009 5.246,0.009 C7.182,0.009 8.751,1.576 8.751,3.509 L8.751,5.259 ZM6.999,3.509 C6.999,2.542 6.214,1.759 5.246,1.759 C4.278,1.759 3.493,2.542 3.493,3.509 L3.493,5.259 C3.493,6.225 4.278,7.009 5.246,7.009 C6.214,7.009 6.999,6.225 6.999,5.259 L6.999,3.509 ZM5.246,8.759 C3.615,8.759 2.131,9.876 1.741,11.384 C1.741,11.867 2.133,12.259 2.617,12.259 L7.875,12.259 C8.359,12.259 8.751,11.867 8.751,11.384 C8.360,9.876 6.877,8.759 5.246,8.759 Z" class="cls-1"/>
</svg>
