<svg xmlns="http://www.w3.org/2000/svg" xmlns:xlink="http://www.w3.org/1999/xlink" preserveAspectRatio="xMidYMid" width="20" height="18" viewBox="0 0 20 18">
  <path d="M10.001,18.004 C3.244,18.004 0.002,8.999 0.002,8.999 C0.002,8.999 3.244,-0.006 10.001,-0.006 C16.758,-0.006 20.001,8.999 20.001,8.999 C20.001,8.999 16.758,18.004 10.001,18.004 ZM10.001,2.566 C6.550,2.566 3.751,5.446 3.751,8.999 C3.751,12.551 6.550,15.431 10.001,15.431 C13.453,15.431 16.251,12.551 16.251,8.999 C16.251,5.446 13.453,2.566 10.001,2.566 ZM10.001,12.858 C7.930,12.858 6.252,11.130 6.252,8.999 C6.252,8.545 6.342,8.116 6.481,7.712 L8.751,7.712 L8.751,5.376 C9.144,5.232 9.561,5.139 10.001,5.139 C12.072,5.139 13.751,6.867 13.751,8.999 C13.751,11.130 12.072,12.858 10.001,12.858 Z" class="cls-1"/>
</svg>
